<svg width="269" height="412" viewBox="0 0 269 412" fill="none" xmlns="http://www.w3.org/2000/svg">
<path d="M148.505 204.169C146.864 242.537 84.1581 251.013 84.1581 251.013C84.1581 251.013 64.6423 215.29 113.128 203.7L148.505 204.169Z" fill="url(#paint0_linear_1055_3083)"/>
<path d="M148.474 204.374C150.153 166.026 88.0425 155.69 88.0425 155.69C88.0425 155.69 65.3883 190.765 112.977 203.784L148.474 204.374Z" fill="url(#paint1_linear_1055_3083)"/>
<g filter="url(#filter0_f_1055_3083)">
<path d="M88.2263 202.998C90.2481 173.049 55.1151 166.858 55.1151 166.858C55.1151 166.858 41.2429 195.362 67.975 202.998L88.2263 202.998Z" fill="url(#paint2_linear_1055_3083)"/>
</g>
<g filter="url(#filter1_f_1055_3083)">
<path d="M88.0908 203.097C89.2089 233.174 54.5117 238.995 54.5117 238.995C54.5117 238.995 41.6509 210.06 68.2679 203.097L88.0908 203.097Z" fill="url(#paint3_linear_1055_3083)"/>
</g>
<path d="M24.9873 213.35C18.8565 213.35 12.9768 212.254 8.64166 210.304C4.30654 208.353 1.87109 205.707 1.87109 202.949C1.87109 200.19 4.30654 197.544 8.64166 195.593C12.9768 193.643 18.8565 192.547 24.9873 192.547L24.9873 202.949L24.9873 213.35Z" fill="url(#paint4_linear_1055_3083)"/>
<path d="M23.8581 213.32C-7.79658 214.107 1.25393 233.967 2.03699 233.985C2.82005 234.002 57.9833 234.349 53.2079 203.433L24.2325 203.244L23.8581 213.32Z" fill="url(#paint5_linear_1055_3083)"/>
<path d="M23.6776 193.637C-8.51514 192.537 1.77232 172.4 2.5707 172.389C3.36908 172.378 59.5625 172.547 53.0324 203.983L23.5155 203.901L23.6776 193.637Z" fill="url(#paint6_linear_1055_3083)"/>
<g filter="url(#filter2_f_1055_3083)">
<path d="M197.448 211.999C198.848 212.005 200.193 211.416 201.187 210.363C202.181 209.31 202.742 207.879 202.748 206.385C202.754 204.89 202.203 203.455 201.217 202.394C200.231 201.334 198.891 200.735 197.491 200.73L197.47 206.365L197.448 211.999Z" fill="url(#paint7_linear_1055_3083)"/>
</g>
<g filter="url(#filter3_f_1055_3083)">
<path d="M197.822 212.131C204.985 213.652 203.024 223.406 202.842 223.415C202.66 223.424 189.853 223.568 191.031 206.716L197.758 206.637L197.822 212.131Z" fill="url(#paint8_linear_1055_3083)"/>
</g>
<g filter="url(#filter4_f_1055_3083)">
<path d="M197.732 201.099C205.08 200.527 202.774 189.539 202.592 189.532C202.41 189.526 189.587 189.569 191.012 206.714L197.747 206.695L197.732 201.099Z" fill="url(#paint9_linear_1055_3083)"/>
</g>
<g filter="url(#filter5_f_1055_3083)">
<path d="M215.523 218.931C215.528 217.531 214.939 216.186 213.887 215.192C212.834 214.198 211.402 213.636 209.908 213.631C208.414 213.625 206.978 214.176 205.918 215.162C204.857 216.147 204.259 217.488 204.253 218.888L209.888 218.909L215.523 218.931Z" fill="url(#paint10_linear_1055_3083)"/>
</g>
<g filter="url(#filter6_f_1055_3083)">
<path d="M215.654 218.557C217.176 211.394 226.929 213.355 226.938 213.537C226.947 213.718 227.091 226.526 210.239 225.348L210.16 218.621L215.654 218.557Z" fill="url(#paint11_linear_1055_3083)"/>
</g>
<g filter="url(#filter7_f_1055_3083)">
<path d="M204.622 218.647C204.05 211.299 193.062 213.605 193.056 213.787C193.049 213.969 193.092 226.792 210.237 225.367L210.218 218.632L204.622 218.647Z" fill="url(#paint12_linear_1055_3083)"/>
</g>
<g filter="url(#filter8_f_1055_3083)">
<path d="M223.434 201.083C222.035 201.077 220.69 201.666 219.696 202.719C218.702 203.772 218.14 205.203 218.135 206.697C218.129 208.192 218.68 209.627 219.666 210.688C220.651 211.748 221.992 212.347 223.392 212.352L223.413 206.717L223.434 201.083Z" fill="url(#paint13_linear_1055_3083)"/>
</g>
<g filter="url(#filter9_f_1055_3083)">
<path d="M223.064 200.951C215.901 199.43 217.863 189.676 218.044 189.667C218.226 189.658 231.033 189.514 229.856 206.366L223.129 206.445L223.064 200.951Z" fill="url(#paint14_linear_1055_3083)"/>
</g>
<g filter="url(#filter10_f_1055_3083)">
<path d="M223.151 211.983C215.803 212.555 218.109 223.543 218.291 223.55C218.473 223.556 231.296 223.513 229.871 206.368L223.135 206.387L223.151 211.983Z" fill="url(#paint15_linear_1055_3083)"/>
</g>
<g filter="url(#filter11_f_1055_3083)">
<path d="M203.927 194.53C203.921 195.93 204.51 197.275 205.563 198.269C206.616 199.263 208.047 199.824 209.541 199.83C211.036 199.836 212.471 199.285 213.531 198.299C214.592 197.313 215.191 195.973 215.196 194.573L209.561 194.552L203.927 194.53Z" fill="url(#paint16_linear_1055_3083)"/>
</g>
<g filter="url(#filter12_f_1055_3083)">
<path d="M203.795 194.904C202.274 202.067 192.52 200.106 192.511 199.924C192.502 199.743 192.358 186.935 209.21 188.113L209.289 194.84L203.795 194.904Z" fill="url(#paint17_linear_1055_3083)"/>
</g>
<g filter="url(#filter13_f_1055_3083)">
<path d="M214.823 194.814C215.395 202.162 226.383 199.856 226.39 199.674C226.396 199.492 226.353 186.669 209.208 188.094L209.227 194.829L214.823 194.814Z" fill="url(#paint18_linear_1055_3083)"/>
</g>
<path d="M248.921 219.694C253.071 219.694 257.052 218.404 259.987 216.107C262.922 213.81 264.57 210.695 264.57 207.447C264.57 204.198 262.922 201.083 259.987 198.786C257.052 196.49 253.071 195.199 248.921 195.199L248.921 207.447L248.921 219.694Z" fill="url(#paint19_linear_1055_3083)"/>
<path d="M249.593 219.737C271.172 220.662 265.002 244.009 264.468 244.03C263.935 244.05 226.33 244.458 229.585 208.113L249.338 207.891L249.593 219.737Z" fill="url(#paint20_linear_1055_3083)"/>
<path d="M249.718 196.6C271.664 195.307 264.651 171.634 264.107 171.622C263.563 171.609 225.256 171.807 229.707 208.762L249.829 208.666L249.718 196.6Z" fill="url(#paint21_linear_1055_3083)"/>
<path d="M222.92 169.136C222.954 164.986 221.696 160.995 219.424 158.041C217.151 155.087 214.05 153.413 210.802 153.386C207.554 153.359 204.425 154.982 202.104 157.898C199.783 160.814 198.46 164.784 198.426 168.934L210.673 169.035L222.92 169.136Z" fill="url(#paint22_linear_1055_3083)"/>
<path d="M222.968 168.463C224.071 146.892 247.366 153.254 247.383 153.788C247.399 154.322 247.496 191.929 211.18 188.374L211.121 168.62L222.968 168.463Z" fill="url(#paint23_linear_1055_3083)"/>
<path d="M199.835 168.151C198.723 146.195 174.993 153.013 174.976 153.557C174.958 154.101 174.84 192.408 211.831 188.262L211.901 168.14L199.835 168.151Z" fill="url(#paint24_linear_1055_3083)"/>
<path d="M171.472 194.366C167.322 194.331 163.331 195.589 160.377 197.861C157.423 200.134 155.749 203.235 155.722 206.483C155.695 209.732 157.318 212.86 160.234 215.181C163.15 217.502 167.12 218.825 171.27 218.86L171.371 206.613L171.472 194.366Z" fill="url(#paint25_linear_1055_3083)"/>
<path d="M170.799 194.317C149.228 193.214 155.59 169.919 156.124 169.902C156.658 169.886 194.265 169.789 190.71 206.105L170.956 206.164L170.799 194.317Z" fill="url(#paint26_linear_1055_3083)"/>
<path d="M170.487 217.454C148.531 218.566 155.349 242.296 155.893 242.313C156.437 242.331 194.744 242.449 190.597 205.458L170.476 205.388L170.487 217.454Z" fill="url(#paint27_linear_1055_3083)"/>
<path d="M197.147 243.997C197.113 248.147 198.37 252.138 200.643 255.092C202.915 258.045 206.017 259.72 209.265 259.747C212.513 259.773 215.642 258.15 217.962 255.235C220.283 252.319 221.607 248.349 221.641 244.199L209.394 244.098L197.147 243.997Z" fill="url(#paint28_linear_1055_3083)"/>
<path d="M197.102 244.674C195.999 266.245 172.704 259.883 172.688 259.349C172.671 258.815 172.574 221.208 208.891 224.763L208.949 244.517L197.102 244.674Z" fill="url(#paint29_linear_1055_3083)"/>
<path d="M220.239 244.99C221.351 266.945 245.082 260.128 245.099 259.584C245.116 259.04 245.234 220.733 208.243 224.879L208.173 245.001L220.239 244.99Z" fill="url(#paint30_linear_1055_3083)"/>
<path d="M215.154 263.202C253.521 264.843 261.998 327.549 261.998 327.549C261.998 327.549 226.274 347.065 214.685 298.579L215.154 263.202Z" fill="url(#paint31_linear_1055_3083)"/>
<path d="M215.358 263.237C177.011 261.558 166.674 323.668 166.674 323.668C166.674 323.668 201.749 346.323 214.768 298.734L215.358 263.237Z" fill="url(#paint32_linear_1055_3083)"/>
<g filter="url(#filter14_f_1055_3083)">
<path d="M213.982 323.481C184.033 321.459 177.843 356.592 177.843 356.592C177.843 356.592 206.346 370.464 213.982 343.732L213.982 323.481Z" fill="url(#paint33_linear_1055_3083)"/>
</g>
<g filter="url(#filter15_f_1055_3083)">
<path d="M214.085 323.616C244.163 322.498 249.983 357.195 249.983 357.195C249.983 357.195 221.048 370.056 214.085 343.439L214.085 323.616Z" fill="url(#paint34_linear_1055_3083)"/>
</g>
<path d="M224.335 386.72C224.335 392.851 223.239 398.73 221.288 403.065C219.337 407.4 216.692 409.836 213.933 409.836C211.174 409.836 208.529 407.4 206.578 403.065C204.627 398.73 203.531 392.851 203.531 386.72L213.933 386.72H224.335Z" fill="url(#paint35_linear_1055_3083)"/>
<path d="M224.305 387.849C225.091 419.504 244.951 410.453 244.969 409.67C244.987 408.887 245.333 353.724 214.417 358.499L214.228 387.475L224.305 387.849Z" fill="url(#paint36_linear_1055_3083)"/>
<path d="M204.622 388.029C203.522 420.222 183.384 409.935 183.374 409.136C183.363 408.338 183.531 352.145 214.967 358.675L214.885 388.192L204.622 388.029Z" fill="url(#paint37_linear_1055_3083)"/>
<path d="M211.839 148.509C173.471 146.868 164.994 84.1619 164.994 84.1619C164.994 84.1619 200.718 64.6462 212.307 113.132L211.839 148.509Z" fill="url(#paint38_linear_1055_3083)"/>
<path d="M211.638 148.474C249.985 150.153 260.322 88.0425 260.322 88.0425C260.322 88.0425 225.247 65.3883 212.228 112.977L211.638 148.474Z" fill="url(#paint39_linear_1055_3083)"/>
<g filter="url(#filter16_f_1055_3083)">
<path d="M213.01 88.2302C242.959 90.252 249.15 55.1191 249.15 55.1191C249.15 55.1191 220.646 41.2468 213.01 67.9789L213.01 88.2302Z" fill="url(#paint40_linear_1055_3083)"/>
</g>
<g filter="url(#filter17_f_1055_3083)">
<path d="M212.911 88.0947C182.833 89.2128 177.013 54.5156 177.013 54.5156C177.013 54.5156 205.948 41.6548 212.911 68.2718L212.911 88.0947Z" fill="url(#paint41_linear_1055_3083)"/>
</g>
<path d="M202.661 24.9912C202.661 18.8604 203.757 12.9807 205.708 8.64556C207.659 4.31044 210.304 1.875 213.063 1.875C215.822 1.875 218.468 4.31044 220.418 8.64556C222.369 12.9807 223.465 18.8604 223.465 24.9912L213.063 24.9912L202.661 24.9912Z" fill="url(#paint42_linear_1055_3083)"/>
<path d="M202.691 23.862C201.905 -7.79268 182.045 1.25783 182.027 2.04089C182.009 2.82395 181.663 57.9872 212.579 53.2118L212.768 24.2364L202.691 23.862Z" fill="url(#paint43_linear_1055_3083)"/>
<path d="M222.371 23.6815C223.471 -8.51123 243.608 1.77623 243.619 2.57461C243.629 3.373 243.461 59.5664 212.025 53.0363L212.107 23.5194L222.371 23.6815Z" fill="url(#paint44_linear_1055_3083)"/>
<path d="M163.488 251.973C189.63 280.103 151.593 330.671 151.593 330.671C151.593 330.671 112.463 319.45 138.292 276.812L163.488 251.973Z" fill="url(#paint45_linear_1055_3083)"/>
<path d="M163.609 252.14C137.509 223.995 86.5058 260.918 86.5058 260.918C86.5058 260.918 95.5386 301.685 138.244 276.978L163.609 252.14Z" fill="url(#paint46_linear_1055_3083)"/>
<path d="M120.293 294.034C100.407 271.548 71.3129 292.192 71.3129 292.192C71.3129 292.192 81.8419 322.092 106.061 308.441L120.293 294.034Z" fill="url(#paint47_linear_1055_3083)"/>
<path d="M120.272 294.2C142.455 314.542 122.212 343.317 122.212 343.317C122.212 343.317 92.589 332.132 106.341 308.303L120.272 294.2Z" fill="url(#paint48_linear_1055_3083)"/>
<path d="M83.2171 346.296C78.9086 350.657 73.997 354.07 69.5626 355.783C65.1283 357.496 61.5345 357.37 59.5719 355.431C57.6093 353.492 57.4386 349.9 59.0974 345.445C60.7562 340.99 64.1086 336.037 68.4171 331.676L75.8171 338.986L83.2171 346.296Z" fill="url(#paint49_linear_1055_3083)"/>
<path d="M82.399 347.081C60.7128 370.154 81.202 377.672 81.765 377.128C82.3279 376.583 121.341 337.582 95.9906 319.253L75.4936 339.734L82.399 347.081Z" fill="url(#paint50_linear_1055_3083)"/>
<path d="M68.2708 333.375C44.8644 355.504 37.7679 334.034 38.3213 333.458C38.8748 332.883 78.4853 293.024 96.2603 319.761L75.4588 340.703L68.2708 333.375Z" fill="url(#paint51_linear_1055_3083)"/>
<path d="M163.048 154.284C134.757 180.254 84.4234 141.907 84.4234 141.907C84.4234 141.907 95.884 102.847 138.363 128.937L163.048 154.284Z" fill="url(#paint52_linear_1055_3083)"/>
<path d="M162.883 154.399C191.187 128.472 154.577 77.2435 154.577 77.2435C154.577 77.2435 113.756 86.0266 138.2 128.882L162.883 154.399Z" fill="url(#paint53_linear_1055_3083)"/>
<path d="M121.253 110.83C143.86 91.0824 123.395 61.8621 123.395 61.8621C123.395 61.8621 93.4307 72.2077 106.934 96.5098L121.253 110.83Z" fill="url(#paint54_linear_1055_3083)"/>
<path d="M121.088 110.807C100.611 132.866 71.9605 112.447 71.9605 112.447C71.9605 112.447 83.327 82.8923 107.071 96.7901L121.088 110.807Z" fill="url(#paint55_linear_1055_3083)"/>
<path d="M69.2174 73.4348C64.8823 69.0996 61.4996 64.1672 59.8136 59.7224C58.1275 55.2777 58.2762 51.6847 60.2269 49.734C62.1776 47.7833 65.7705 47.6346 70.2153 49.3207C74.66 51.0067 79.5925 54.3894 83.9276 58.7245L76.5725 66.0796L69.2174 73.4348Z" fill="url(#paint56_linear_1055_3083)"/>
<path d="M68.4402 72.6136C45.5008 50.7866 37.8573 71.2293 38.3985 71.7956C38.9396 72.3619 77.701 111.613 96.1853 86.3754L75.8299 65.7534L68.4402 72.6136Z" fill="url(#paint57_linear_1055_3083)"/>
<path d="M82.2316 58.57C60.2456 35.0285 81.7592 28.0636 82.3313 28.6206C82.9035 29.1775 122.519 69.0314 95.6731 86.6424L74.8593 65.713L82.2316 58.57Z" fill="url(#paint58_linear_1055_3083)"/>
<defs>
<filter id="filter0_f_1055_3083" x="50.8194" y="166.163" width="38.1854" height="37.5292" filterUnits="userSpaceOnUse" color-interpolation-filters="sRGB">
<feFlood flood-opacity="0" result="BackgroundImageFix"/>
<feBlend mode="normal" in="SourceGraphic" in2="BackgroundImageFix" result="shape"/>
<feGaussianBlur stdDeviation="0.348116" result="effect1_foregroundBlur_1055_3083"/>
</filter>
<filter id="filter1_f_1055_3083" x="50.71" y="202.401" width="38.1034" height="37.2909" filterUnits="userSpaceOnUse" color-interpolation-filters="sRGB">
<feFlood flood-opacity="0" result="BackgroundImageFix"/>
<feBlend mode="normal" in="SourceGraphic" in2="BackgroundImageFix" result="shape"/>
<feGaussianBlur stdDeviation="0.348116" result="effect1_foregroundBlur_1055_3083"/>
</filter>
<filter id="filter2_f_1055_3083" x="196.753" y="200.034" width="6.69325" height="12.662" filterUnits="userSpaceOnUse" color-interpolation-filters="sRGB">
<feFlood flood-opacity="0" result="BackgroundImageFix"/>
<feBlend mode="normal" in="SourceGraphic" in2="BackgroundImageFix" result="shape"/>
<feGaussianBlur stdDeviation="0.348116" result="effect1_foregroundBlur_1055_3083"/>
</filter>
<filter id="filter3_f_1055_3083" x="190.257" y="205.94" width="13.662" height="18.1698" filterUnits="userSpaceOnUse" color-interpolation-filters="sRGB">
<feFlood flood-opacity="0" result="BackgroundImageFix"/>
<feBlend mode="normal" in="SourceGraphic" in2="BackgroundImageFix" result="shape"/>
<feGaussianBlur stdDeviation="0.348116" result="effect1_foregroundBlur_1055_3083"/>
</filter>
<filter id="filter4_f_1055_3083" x="190.206" y="188.835" width="13.5643" height="18.5761" filterUnits="userSpaceOnUse" color-interpolation-filters="sRGB">
<feFlood flood-opacity="0" result="BackgroundImageFix"/>
<feBlend mode="normal" in="SourceGraphic" in2="BackgroundImageFix" result="shape"/>
<feGaussianBlur stdDeviation="0.348116" result="effect1_foregroundBlur_1055_3083"/>
</filter>
<filter id="filter5_f_1055_3083" x="203.558" y="212.933" width="12.662" height="6.69325" filterUnits="userSpaceOnUse" color-interpolation-filters="sRGB">
<feFlood flood-opacity="0" result="BackgroundImageFix"/>
<feBlend mode="normal" in="SourceGraphic" in2="BackgroundImageFix" result="shape"/>
<feGaussianBlur stdDeviation="0.348116" result="effect1_foregroundBlur_1055_3083"/>
</filter>
<filter id="filter6_f_1055_3083" x="209.464" y="212.46" width="18.1698" height="13.662" filterUnits="userSpaceOnUse" color-interpolation-filters="sRGB">
<feFlood flood-opacity="0" result="BackgroundImageFix"/>
<feBlend mode="normal" in="SourceGraphic" in2="BackgroundImageFix" result="shape"/>
<feGaussianBlur stdDeviation="0.348116" result="effect1_foregroundBlur_1055_3083"/>
</filter>
<filter id="filter7_f_1055_3083" x="192.358" y="212.608" width="18.5761" height="13.5643" filterUnits="userSpaceOnUse" color-interpolation-filters="sRGB">
<feFlood flood-opacity="0" result="BackgroundImageFix"/>
<feBlend mode="normal" in="SourceGraphic" in2="BackgroundImageFix" result="shape"/>
<feGaussianBlur stdDeviation="0.348116" result="effect1_foregroundBlur_1055_3083"/>
</filter>
<filter id="filter8_f_1055_3083" x="217.437" y="200.386" width="6.69325" height="12.662" filterUnits="userSpaceOnUse" color-interpolation-filters="sRGB">
<feFlood flood-opacity="0" result="BackgroundImageFix"/>
<feBlend mode="normal" in="SourceGraphic" in2="BackgroundImageFix" result="shape"/>
<feGaussianBlur stdDeviation="0.348116" result="effect1_foregroundBlur_1055_3083"/>
</filter>
<filter id="filter9_f_1055_3083" x="216.968" y="188.972" width="13.662" height="18.1698" filterUnits="userSpaceOnUse" color-interpolation-filters="sRGB">
<feFlood flood-opacity="0" result="BackgroundImageFix"/>
<feBlend mode="normal" in="SourceGraphic" in2="BackgroundImageFix" result="shape"/>
<feGaussianBlur stdDeviation="0.348116" result="effect1_foregroundBlur_1055_3083"/>
</filter>
<filter id="filter10_f_1055_3083" x="217.112" y="205.671" width="13.5643" height="18.5761" filterUnits="userSpaceOnUse" color-interpolation-filters="sRGB">
<feFlood flood-opacity="0" result="BackgroundImageFix"/>
<feBlend mode="normal" in="SourceGraphic" in2="BackgroundImageFix" result="shape"/>
<feGaussianBlur stdDeviation="0.348116" result="effect1_foregroundBlur_1055_3083"/>
</filter>
<filter id="filter11_f_1055_3083" x="203.23" y="193.835" width="12.662" height="6.69325" filterUnits="userSpaceOnUse" color-interpolation-filters="sRGB">
<feFlood flood-opacity="0" result="BackgroundImageFix"/>
<feBlend mode="normal" in="SourceGraphic" in2="BackgroundImageFix" result="shape"/>
<feGaussianBlur stdDeviation="0.348116" result="effect1_foregroundBlur_1055_3083"/>
</filter>
<filter id="filter12_f_1055_3083" x="191.815" y="187.339" width="18.1698" height="13.662" filterUnits="userSpaceOnUse" color-interpolation-filters="sRGB">
<feFlood flood-opacity="0" result="BackgroundImageFix"/>
<feBlend mode="normal" in="SourceGraphic" in2="BackgroundImageFix" result="shape"/>
<feGaussianBlur stdDeviation="0.348116" result="effect1_foregroundBlur_1055_3083"/>
</filter>
<filter id="filter13_f_1055_3083" x="208.511" y="187.288" width="18.5761" height="13.5643" filterUnits="userSpaceOnUse" color-interpolation-filters="sRGB">
<feFlood flood-opacity="0" result="BackgroundImageFix"/>
<feBlend mode="normal" in="SourceGraphic" in2="BackgroundImageFix" result="shape"/>
<feGaussianBlur stdDeviation="0.348116" result="effect1_foregroundBlur_1055_3083"/>
</filter>
<filter id="filter14_f_1055_3083" x="177.148" y="322.702" width="37.5292" height="38.1854" filterUnits="userSpaceOnUse" color-interpolation-filters="sRGB">
<feFlood flood-opacity="0" result="BackgroundImageFix"/>
<feBlend mode="normal" in="SourceGraphic" in2="BackgroundImageFix" result="shape"/>
<feGaussianBlur stdDeviation="0.348116" result="effect1_foregroundBlur_1055_3083"/>
</filter>
<filter id="filter15_f_1055_3083" x="213.39" y="322.894" width="37.2909" height="38.1034" filterUnits="userSpaceOnUse" color-interpolation-filters="sRGB">
<feFlood flood-opacity="0" result="BackgroundImageFix"/>
<feBlend mode="normal" in="SourceGraphic" in2="BackgroundImageFix" result="shape"/>
<feGaussianBlur stdDeviation="0.348116" result="effect1_foregroundBlur_1055_3083"/>
</filter>
<filter id="filter16_f_1055_3083" x="212.315" y="50.8233" width="37.5292" height="38.1854" filterUnits="userSpaceOnUse" color-interpolation-filters="sRGB">
<feFlood flood-opacity="0" result="BackgroundImageFix"/>
<feBlend mode="normal" in="SourceGraphic" in2="BackgroundImageFix" result="shape"/>
<feGaussianBlur stdDeviation="0.348116" result="effect1_foregroundBlur_1055_3083"/>
</filter>
<filter id="filter17_f_1055_3083" x="176.315" y="50.7139" width="37.2909" height="38.1034" filterUnits="userSpaceOnUse" color-interpolation-filters="sRGB">
<feFlood flood-opacity="0" result="BackgroundImageFix"/>
<feBlend mode="normal" in="SourceGraphic" in2="BackgroundImageFix" result="shape"/>
<feGaussianBlur stdDeviation="0.348116" result="effect1_foregroundBlur_1055_3083"/>
</filter>
<linearGradient id="paint0_linear_1055_3083" x1="123.327" y1="257.011" x2="108.177" y2="194.45" gradientUnits="userSpaceOnUse">
<stop offset="0.225962" stop-color="#ABC67A"/>
<stop offset="0.625" stop-color="#699C53"/>
</linearGradient>
<linearGradient id="paint1_linear_1055_3083" x1="127.818" y1="150.875" x2="110.411" y2="213.754" gradientUnits="userSpaceOnUse">
<stop offset="0.225962" stop-color="#ABC67A"/>
<stop offset="0.625" stop-color="#699C53"/>
</linearGradient>
<linearGradient id="paint2_linear_1055_3083" x1="84.6118" y1="179.934" x2="54.7911" y2="176.145" gradientUnits="userSpaceOnUse">
<stop offset="0.120192" stop-color="#ABD2CB"/>
<stop offset="0.552885" stop-color="#78BEB2"/>
</linearGradient>
<linearGradient id="paint3_linear_1055_3083" x1="83.7976" y1="226.368" x2="54.3942" y2="229.007" gradientUnits="userSpaceOnUse">
<stop offset="0.120192" stop-color="#ABD2CB"/>
<stop offset="0.552885" stop-color="#78BEB2"/>
</linearGradient>
<linearGradient id="paint4_linear_1055_3083" x1="1.87109" y1="202.949" x2="48.1034" y2="202.949" gradientUnits="userSpaceOnUse">
<stop offset="0.100962" stop-color="#DF6DB7"/>
<stop offset="1" stop-color="#B85172"/>
</linearGradient>
<linearGradient id="paint5_linear_1055_3083" x1="0.574767" y1="218.533" x2="53.0194" y2="220.481" gradientUnits="userSpaceOnUse">
<stop offset="0.100962" stop-color="#DF6DB7"/>
<stop offset="1" stop-color="#B85172"/>
</linearGradient>
<linearGradient id="paint6_linear_1055_3083" x1="0.248394" y1="188.109" x2="53.7229" y2="188.954" gradientUnits="userSpaceOnUse">
<stop offset="0.100962" stop-color="#DF6DB7"/>
<stop offset="1" stop-color="#B85172"/>
</linearGradient>
<linearGradient id="paint7_linear_1055_3083" x1="192.19" y1="206.768" x2="200.757" y2="210.516" gradientUnits="userSpaceOnUse">
<stop offset="0.120192" stop-color="#ABD2CB"/>
<stop offset="0.552885" stop-color="#78BEB2"/>
</linearGradient>
<linearGradient id="paint8_linear_1055_3083" x1="191.034" y1="215.767" x2="201.618" y2="219.156" gradientUnits="userSpaceOnUse">
<stop offset="0.120192" stop-color="#ABD2CB"/>
<stop offset="0.552885" stop-color="#78BEB2"/>
</linearGradient>
<linearGradient id="paint9_linear_1055_3083" x1="190.883" y1="197.495" x2="201.503" y2="193.968" gradientUnits="userSpaceOnUse">
<stop offset="0.120192" stop-color="#ABD2CB"/>
<stop offset="0.552885" stop-color="#78BEB2"/>
</linearGradient>
<linearGradient id="paint10_linear_1055_3083" x1="210.291" y1="224.189" x2="214.04" y2="215.622" gradientUnits="userSpaceOnUse">
<stop offset="0.120192" stop-color="#ABD2CB"/>
<stop offset="0.552885" stop-color="#78BEB2"/>
</linearGradient>
<linearGradient id="paint11_linear_1055_3083" x1="219.291" y1="225.345" x2="222.68" y2="214.761" gradientUnits="userSpaceOnUse">
<stop offset="0.120192" stop-color="#ABD2CB"/>
<stop offset="0.552885" stop-color="#78BEB2"/>
</linearGradient>
<linearGradient id="paint12_linear_1055_3083" x1="201.019" y1="225.496" x2="197.492" y2="214.876" gradientUnits="userSpaceOnUse">
<stop offset="0.120192" stop-color="#ABD2CB"/>
<stop offset="0.552885" stop-color="#78BEB2"/>
</linearGradient>
<linearGradient id="paint13_linear_1055_3083" x1="228.693" y1="206.314" x2="220.126" y2="202.566" gradientUnits="userSpaceOnUse">
<stop offset="0.120192" stop-color="#ABD2CB"/>
<stop offset="0.552885" stop-color="#78BEB2"/>
</linearGradient>
<linearGradient id="paint14_linear_1055_3083" x1="229.853" y1="197.315" x2="219.268" y2="193.926" gradientUnits="userSpaceOnUse">
<stop offset="0.120192" stop-color="#ABD2CB"/>
<stop offset="0.552885" stop-color="#78BEB2"/>
</linearGradient>
<linearGradient id="paint15_linear_1055_3083" x1="230" y1="215.587" x2="219.379" y2="219.114" gradientUnits="userSpaceOnUse">
<stop offset="0.120192" stop-color="#ABD2CB"/>
<stop offset="0.552885" stop-color="#78BEB2"/>
</linearGradient>
<linearGradient id="paint16_linear_1055_3083" x1="209.158" y1="189.272" x2="205.41" y2="197.839" gradientUnits="userSpaceOnUse">
<stop offset="0.120192" stop-color="#ABD2CB"/>
<stop offset="0.552885" stop-color="#78BEB2"/>
</linearGradient>
<linearGradient id="paint17_linear_1055_3083" x1="200.159" y1="188.116" x2="196.77" y2="198.7" gradientUnits="userSpaceOnUse">
<stop offset="0.120192" stop-color="#ABD2CB"/>
<stop offset="0.552885" stop-color="#78BEB2"/>
</linearGradient>
<linearGradient id="paint18_linear_1055_3083" x1="218.427" y1="187.965" x2="221.954" y2="198.585" gradientUnits="userSpaceOnUse">
<stop offset="0.120192" stop-color="#ABD2CB"/>
<stop offset="0.552885" stop-color="#78BEB2"/>
</linearGradient>
<linearGradient id="paint19_linear_1055_3083" x1="264.57" y1="207.447" x2="233.271" y2="207.447" gradientUnits="userSpaceOnUse">
<stop offset="0.100962" stop-color="#DF6DB7"/>
<stop offset="1" stop-color="#B85172"/>
</linearGradient>
<linearGradient id="paint20_linear_1055_3083" x1="265.465" y1="225.865" x2="229.681" y2="226.636" gradientUnits="userSpaceOnUse">
<stop offset="0.100962" stop-color="#DF6DB7"/>
<stop offset="1" stop-color="#B85172"/>
</linearGradient>
<linearGradient id="paint21_linear_1055_3083" x1="265.69" y1="190.102" x2="229.231" y2="190.436" gradientUnits="userSpaceOnUse">
<stop offset="0.100962" stop-color="#DF6DB7"/>
<stop offset="1" stop-color="#B85172"/>
</linearGradient>
<linearGradient id="paint22_linear_1055_3083" x1="210.802" y1="153.386" x2="210.543" y2="184.684" gradientUnits="userSpaceOnUse">
<stop offset="0.100962" stop-color="#DF6DB7"/>
<stop offset="1" stop-color="#B85172"/>
</linearGradient>
<linearGradient id="paint23_linear_1055_3083" x1="229.227" y1="152.642" x2="229.702" y2="188.431" gradientUnits="userSpaceOnUse">
<stop offset="0.100962" stop-color="#DF6DB7"/>
<stop offset="1" stop-color="#B85172"/>
</linearGradient>
<linearGradient id="paint24_linear_1055_3083" x1="193.468" y1="152.126" x2="193.502" y2="188.587" gradientUnits="userSpaceOnUse">
<stop offset="0.100962" stop-color="#DF6DB7"/>
<stop offset="1" stop-color="#B85172"/>
</linearGradient>
<linearGradient id="paint25_linear_1055_3083" x1="155.722" y1="206.483" x2="187.02" y2="206.742" gradientUnits="userSpaceOnUse">
<stop offset="0.100962" stop-color="#DF6DB7"/>
<stop offset="1" stop-color="#B85172"/>
</linearGradient>
<linearGradient id="paint26_linear_1055_3083" x1="154.977" y1="188.058" x2="190.767" y2="187.583" gradientUnits="userSpaceOnUse">
<stop offset="0.100962" stop-color="#DF6DB7"/>
<stop offset="1" stop-color="#B85172"/>
</linearGradient>
<linearGradient id="paint27_linear_1055_3083" x1="154.462" y1="223.821" x2="190.923" y2="223.787" gradientUnits="userSpaceOnUse">
<stop offset="0.100962" stop-color="#DF6DB7"/>
<stop offset="1" stop-color="#B85172"/>
</linearGradient>
<linearGradient id="paint28_linear_1055_3083" x1="209.265" y1="259.747" x2="209.523" y2="228.449" gradientUnits="userSpaceOnUse">
<stop offset="0.100962" stop-color="#DF6DB7"/>
<stop offset="1" stop-color="#B85172"/>
</linearGradient>
<linearGradient id="paint29_linear_1055_3083" x1="190.844" y1="260.495" x2="190.368" y2="224.706" gradientUnits="userSpaceOnUse">
<stop offset="0.100962" stop-color="#DF6DB7"/>
<stop offset="1" stop-color="#B85172"/>
</linearGradient>
<linearGradient id="paint30_linear_1055_3083" x1="226.606" y1="261.014" x2="226.573" y2="224.554" gradientUnits="userSpaceOnUse">
<stop offset="0.100962" stop-color="#DF6DB7"/>
<stop offset="1" stop-color="#B85172"/>
</linearGradient>
<linearGradient id="paint31_linear_1055_3083" x1="267.995" y1="288.38" x2="205.434" y2="303.53" gradientUnits="userSpaceOnUse">
<stop offset="0.225962" stop-color="#ABC67A"/>
<stop offset="0.625" stop-color="#699C53"/>
</linearGradient>
<linearGradient id="paint32_linear_1055_3083" x1="161.859" y1="283.893" x2="224.739" y2="301.3" gradientUnits="userSpaceOnUse">
<stop offset="0.225962" stop-color="#ABC67A"/>
<stop offset="0.625" stop-color="#699C53"/>
</linearGradient>
<linearGradient id="paint33_linear_1055_3083" x1="190.918" y1="327.095" x2="187.129" y2="356.916" gradientUnits="userSpaceOnUse">
<stop offset="0.120192" stop-color="#ABD2CB"/>
<stop offset="0.552885" stop-color="#78BEB2"/>
</linearGradient>
<linearGradient id="paint34_linear_1055_3083" x1="237.356" y1="327.909" x2="239.996" y2="357.313" gradientUnits="userSpaceOnUse">
<stop offset="0.120192" stop-color="#ABD2CB"/>
<stop offset="0.552885" stop-color="#78BEB2"/>
</linearGradient>
<linearGradient id="paint35_linear_1055_3083" x1="213.933" y1="409.836" x2="213.933" y2="363.604" gradientUnits="userSpaceOnUse">
<stop offset="0.100962" stop-color="#DF6DB7"/>
<stop offset="1" stop-color="#B85172"/>
</linearGradient>
<linearGradient id="paint36_linear_1055_3083" x1="229.517" y1="411.132" x2="231.466" y2="358.688" gradientUnits="userSpaceOnUse">
<stop offset="0.100962" stop-color="#DF6DB7"/>
<stop offset="1" stop-color="#B85172"/>
</linearGradient>
<linearGradient id="paint37_linear_1055_3083" x1="199.094" y1="411.459" x2="199.938" y2="357.984" gradientUnits="userSpaceOnUse">
<stop offset="0.100962" stop-color="#DF6DB7"/>
<stop offset="1" stop-color="#B85172"/>
</linearGradient>
<linearGradient id="paint38_linear_1055_3083" x1="158.997" y1="123.331" x2="221.558" y2="108.181" gradientUnits="userSpaceOnUse">
<stop offset="0.225962" stop-color="#ABC67A"/>
<stop offset="0.625" stop-color="#699C53"/>
</linearGradient>
<linearGradient id="paint39_linear_1055_3083" x1="265.137" y1="127.818" x2="202.257" y2="110.411" gradientUnits="userSpaceOnUse">
<stop offset="0.225962" stop-color="#ABC67A"/>
<stop offset="0.625" stop-color="#699C53"/>
</linearGradient>
<linearGradient id="paint40_linear_1055_3083" x1="236.074" y1="84.6158" x2="239.863" y2="54.7951" gradientUnits="userSpaceOnUse">
<stop offset="0.120192" stop-color="#ABD2CB"/>
<stop offset="0.552885" stop-color="#78BEB2"/>
</linearGradient>
<linearGradient id="paint41_linear_1055_3083" x1="189.64" y1="83.8015" x2="187" y2="54.3981" gradientUnits="userSpaceOnUse">
<stop offset="0.120192" stop-color="#ABD2CB"/>
<stop offset="0.552885" stop-color="#78BEB2"/>
</linearGradient>
<linearGradient id="paint42_linear_1055_3083" x1="213.063" y1="1.875" x2="213.063" y2="48.1073" gradientUnits="userSpaceOnUse">
<stop offset="0.100962" stop-color="#DF6DB7"/>
<stop offset="1" stop-color="#B85172"/>
</linearGradient>
<linearGradient id="paint43_linear_1055_3083" x1="197.479" y1="0.57867" x2="195.53" y2="53.0233" gradientUnits="userSpaceOnUse">
<stop offset="0.100962" stop-color="#DF6DB7"/>
<stop offset="1" stop-color="#B85172"/>
</linearGradient>
<linearGradient id="paint44_linear_1055_3083" x1="227.898" y1="0.252303" x2="227.054" y2="53.7268" gradientUnits="userSpaceOnUse">
<stop offset="0.100962" stop-color="#DF6DB7"/>
<stop offset="1" stop-color="#B85172"/>
</linearGradient>
<linearGradient id="paint45_linear_1055_3083" x1="183.386" y1="307.02" x2="128.232" y2="273.833" gradientUnits="userSpaceOnUse">
<stop offset="0.225962" stop-color="#ABC67A"/>
<stop offset="0.625" stop-color="#699C53"/>
</linearGradient>
<linearGradient id="paint46_linear_1055_3083" x1="111.033" y1="229.237" x2="143.534" y2="285.81" gradientUnits="userSpaceOnUse">
<stop offset="0.225962" stop-color="#ABC67A"/>
<stop offset="0.625" stop-color="#699C53"/>
</linearGradient>
<linearGradient id="paint47_linear_1055_3083" x1="83.0595" y1="272.066" x2="107.742" y2="318.196" gradientUnits="userSpaceOnUse">
<stop offset="0.225962" stop-color="#ABC67A"/>
<stop offset="0.625" stop-color="#699C53"/>
</linearGradient>
<linearGradient id="paint48_linear_1055_3083" x1="142.075" y1="332.197" x2="95.6863" y2="307.311" gradientUnits="userSpaceOnUse">
<stop offset="0.225962" stop-color="#ABC67A"/>
<stop offset="0.625" stop-color="#699C53"/>
</linearGradient>
<linearGradient id="paint49_linear_1055_3083" x1="59.5719" y1="355.431" x2="92.0623" y2="322.54" gradientUnits="userSpaceOnUse">
<stop offset="0.100962" stop-color="#DF6DB7"/>
<stop offset="1" stop-color="#B85172"/>
</linearGradient>
<linearGradient id="paint50_linear_1055_3083" x1="69.7446" y1="367.309" x2="107.987" y2="331.368" gradientUnits="userSpaceOnUse">
<stop offset="0.100962" stop-color="#DF6DB7"/>
<stop offset="1" stop-color="#B85172"/>
</linearGradient>
<linearGradient id="paint51_linear_1055_3083" x1="47.8731" y1="346.158" x2="86.0539" y2="308.709" gradientUnits="userSpaceOnUse">
<stop offset="0.100962" stop-color="#DF6DB7"/>
<stop offset="1" stop-color="#B85172"/>
</linearGradient>
<linearGradient id="paint52_linear_1055_3083" x1="107.879" y1="173.845" x2="141.404" y2="118.895" gradientUnits="userSpaceOnUse">
<stop offset="0.225962" stop-color="#ABC67A"/>
<stop offset="0.625" stop-color="#699C53"/>
</linearGradient>
<linearGradient id="paint53_linear_1055_3083" x1="186.107" y1="101.964" x2="129.336" y2="134.118" gradientUnits="userSpaceOnUse">
<stop offset="0.225962" stop-color="#ABC67A"/>
<stop offset="0.625" stop-color="#699C53"/>
</linearGradient>
<linearGradient id="paint54_linear_1055_3083" x1="143.449" y1="73.7316" x2="97.1683" y2="98.1313" gradientUnits="userSpaceOnUse">
<stop offset="0.225962" stop-color="#ABC67A"/>
<stop offset="0.625" stop-color="#699C53"/>
</linearGradient>
<linearGradient id="paint55_linear_1055_3083" x1="82.9589" y1="132.377" x2="108.128" y2="86.1416" gradientUnits="userSpaceOnUse">
<stop offset="0.225962" stop-color="#ABC67A"/>
<stop offset="0.625" stop-color="#699C53"/>
</linearGradient>
<linearGradient id="paint56_linear_1055_3083" x1="60.2269" y1="49.734" x2="92.9181" y2="82.4252" gradientUnits="userSpaceOnUse">
<stop offset="0.100962" stop-color="#DF6DB7"/>
<stop offset="1" stop-color="#B85172"/>
</linearGradient>
<linearGradient id="paint57_linear_1055_3083" x1="48.2906" y1="59.8356" x2="83.9966" y2="98.2975" gradientUnits="userSpaceOnUse">
<stop offset="0.100962" stop-color="#DF6DB7"/>
<stop offset="1" stop-color="#B85172"/>
</linearGradient>
<linearGradient id="paint58_linear_1055_3083" x1="69.5733" y1="38.0944" x2="106.788" y2="76.5038" gradientUnits="userSpaceOnUse">
<stop offset="0.100962" stop-color="#DF6DB7"/>
<stop offset="1" stop-color="#B85172"/>
</linearGradient>
</defs>
</svg>
