<svg width="513" height="413" viewBox="0 0 513 413" fill="none" xmlns="http://www.w3.org/2000/svg">
<path d="M388.481 322.636C434.739 344.863 460.021 356.127 471.665 315.345C466.119 271.683 451.905 260.112 422.29 244.359C450.369 210.484 465.64 191.464 441.164 157.942C476.046 103.52 470.863 -6.64564 445.927 2.53435C420.992 11.7143 323.723 153.113 323.723 153.113C378.119 203.584 389.249 254.233 388.481 322.636Z" fill="url(#paint0_linear_1038_3081)"/>
<path d="M132.493 321.873C88.3028 347.954 64.0751 361.327 49.004 321.69C50.8122 277.722 63.9882 264.985 92.1495 246.771C61.2934 215.414 44.4612 197.766 65.9914 162.288C26.6095 111.041 22.3956 0.851794 48.0183 7.87452C73.6409 14.8972 182.577 147.481 182.577 147.481C132.682 202.391 125.906 253.795 132.493 321.873Z" fill="url(#paint1_linear_1038_3081)"/>
<ellipse cx="257" cy="264.086" rx="148" ry="147" fill="#B1E3DA"/>
<path d="M266.37 343.566L271.486 367.065H241.359L247.612 343.566H266.37Z" fill="#B2AC92"/>
<ellipse cx="256.101" cy="184.364" rx="26.2102" ry="17.4735" fill="#362C2C" stroke="#4C3A3A"/>
<ellipse cx="309.112" cy="270.231" rx="13.557" ry="17.1722" fill="#B2AC92"/>
<ellipse cx="202.463" cy="272.039" rx="13.557" ry="17.1722" fill="#B2AC92"/>
<path d="M316.651 272.947C316.651 313.545 291.345 341.636 255.193 346.456C213.919 338.623 193.734 313.545 193.734 272.947C193.734 232.349 221.552 201.848 255.494 201.848C289.437 201.848 316.651 232.349 316.651 272.947Z" fill="#B2AC92"/>
<path d="M246.152 200.944C295.215 199.89 308.62 223.84 318.757 266.92C269.926 259.555 249.711 247.932 245.248 228.66C239.367 243.996 227.134 251.452 195.539 260.594C199.64 227.533 211.906 215.278 246.152 200.944Z" fill="#362C2C" stroke="#4C3A3A"/>
<ellipse cx="232.5" cy="277.477" rx="4.5" ry="9.5" fill="black"/>
<ellipse cx="279.5" cy="277.469" rx="4.5" ry="9.5" fill="black"/>
<path d="M190 395.177L190.543 395.182C239.837 417.228 268.208 417.774 321 396.415C308.793 376.874 298.797 367.876 258.268 366.082C218.525 366.687 201.974 371.746 190 395.177Z" fill="#445C19"/>
<path d="M237 318.969C251.24 328.609 259.237 329.248 273.5 318.969" stroke="black"/>
<defs>
<linearGradient id="paint0_linear_1038_3081" x1="323.532" y1="152.127" x2="494.016" y2="140.747" gradientUnits="userSpaceOnUse">
<stop stop-color="#62AC9F"/>
<stop offset="0.451923" stop-color="#84CEC1"/>
</linearGradient>
<linearGradient id="paint1_linear_1038_3081" x1="182.683" y1="146.482" x2="11.8761" y2="149.656" gradientUnits="userSpaceOnUse">
<stop stop-color="#62AC9F"/>
<stop offset="0.451923" stop-color="#84CEC1"/>
</linearGradient>
</defs>
</svg>
