<svg width="621" height="301" viewBox="0 0 621 301" fill="none" xmlns="http://www.w3.org/2000/svg">
<ellipse cx="141.5" cy="186" rx="19.5" ry="20" fill="url(#paint0_linear_983_3001)"/>
<path d="M34.9387 144.483C148.881 143.228 141.527 272.549 141.527 272.549C141.527 272.549 41.7446 264.478 33.8513 170.243L34.9387 144.483Z" fill="url(#paint1_linear_983_3001)"/>
<path d="M70.9387 45.4829C184.881 44.2281 177.527 173.549 177.527 173.549C177.527 173.549 77.7446 165.478 69.8513 71.2428L70.9387 45.4829Z" fill="url(#paint2_linear_983_3001)"/>
<path d="M466.244 106.105C511.808 108.517 507.729 154.147 507.729 154.147C507.729 154.147 470.708 153.655 468.924 123.796L466.244 106.105Z" fill="url(#paint3_linear_983_3001)"/>
<path d="M467.315 106.107C430.863 109.591 428.969 154.079 428.969 154.079C428.969 154.079 465.362 158.649 469.995 128.889L467.315 106.107Z" fill="url(#paint4_linear_983_3001)"/>
<path d="M466.425 24.6651C598.287 35.4345 585.198 155.713 585.198 155.713C585.198 155.713 479.014 151.62 466.424 52.0331L466.425 24.6651Z" fill="url(#paint5_linear_983_3001)"/>
<path d="M580.66 147.078C599.892 259.393 471.032 272.552 471.032 272.552C471.032 272.552 463.245 172.747 555.052 150.072L580.66 147.078Z" fill="url(#paint6_linear_983_3001)"/>
<path d="M251.849 147.007C269.608 259.564 140.587 271.034 140.587 271.034C140.587 271.034 134.108 171.135 226.204 149.665L251.849 147.007Z" fill="url(#paint7_linear_983_3001)"/>
<path d="M361.4 27.3582C379.159 139.915 250.138 151.385 250.138 151.385C250.138 151.385 243.659 51.4869 335.755 30.0164L361.4 27.3582Z" fill="url(#paint8_linear_983_3001)"/>
<path d="M250.013 147.079C363.961 146.757 355.549 276.013 355.549 276.013C355.549 276.013 255.836 267.126 248.714 172.829L250.013 147.079Z" fill="url(#paint9_linear_983_3001)"/>
<path d="M148.106 22.7861C262.055 22.4636 253.643 151.72 253.643 151.72C253.643 151.72 153.93 142.833 146.808 48.5362L148.106 22.7861Z" fill="url(#paint10_linear_983_3001)"/>
<path d="M468.071 24.4782C355.275 33.1726 355.275 152.328 355.275 152.328C355.275 152.328 471.056 157.85 468.073 59.4202L468.071 24.4782Z" fill="url(#paint11_linear_983_3001)"/>
<path d="M374.858 166.367C364.813 171.407 359.356 182.762 362.95 193.41C393.117 282.767 467.925 271.478 467.925 271.478C467.925 271.478 474.054 175.088 405.305 158.779C372.606 149.954 386.353 173.353 374.858 166.367Z" fill="url(#paint12_linear_983_3001)"/>
<path d="M277 153C277 157.728 278.474 162.409 281.339 166.777C284.203 171.144 288.402 175.113 293.695 178.456C298.988 181.799 305.271 184.451 312.187 186.26C319.103 188.069 326.515 189 334 189C341.485 189 348.897 188.069 355.813 186.26C362.729 184.45 369.012 181.799 374.305 178.456C379.598 175.113 383.797 171.144 386.661 166.777C389.526 162.409 391 157.728 391 153L334 153L277 153Z" fill="url(#paint13_linear_983_3001)"/>
<path d="M391 152.5C391 159.788 393.005 167.005 396.899 173.739C400.794 180.473 406.503 186.591 413.699 191.744C420.896 196.898 429.439 200.986 438.842 203.775C448.245 206.564 458.323 208 468.5 208C478.677 208 488.755 206.564 498.158 203.775C507.561 200.986 516.104 196.898 523.301 191.744C530.497 186.591 536.206 180.472 540.101 173.739C543.995 167.005 546 159.788 546 152.5L468.5 152.5L391 152.5Z" fill="url(#paint14_linear_983_3001)"/>
<circle cx="338.5" cy="135.5" r="18.5" fill="url(#paint15_linear_983_3001)"/>
<defs>
<linearGradient id="paint0_linear_983_3001" x1="122" y1="180.803" x2="161.122" y2="190.715" gradientUnits="userSpaceOnUse">
<stop stop-color="#62AC9F"/>
<stop offset="0.451923" stop-color="#84CEC1"/>
</linearGradient>
<linearGradient id="paint1_linear_983_3001" x1="65.8066" y1="240.448" x2="113.023" y2="173.219" gradientUnits="userSpaceOnUse">
<stop offset="0.288462" stop-color="#EADA9D"/>
<stop offset="1" stop-color="#DAC169"/>
</linearGradient>
<linearGradient id="paint2_linear_983_3001" x1="209.761" y1="127.653" x2="57.1149" y2="145.758" gradientUnits="userSpaceOnUse">
<stop offset="0.0913462" stop-color="#445C19"/>
<stop offset="0.653846" stop-color="#72A85A"/>
</linearGradient>
<linearGradient id="paint3_linear_983_3001" x1="520.234" y1="134.641" x2="461.619" y2="138.408" gradientUnits="userSpaceOnUse">
<stop offset="0.0913462" stop-color="#445C19"/>
<stop offset="0.653846" stop-color="#72A85A"/>
</linearGradient>
<linearGradient id="paint4_linear_983_3001" x1="457.653" y1="148.562" x2="441.073" y2="116.365" gradientUnits="userSpaceOnUse">
<stop offset="0.288462" stop-color="#EADA9D"/>
<stop offset="1" stop-color="#DAC169"/>
</linearGradient>
<linearGradient id="paint5_linear_983_3001" x1="448.324" y1="52.8987" x2="608.814" y2="66.2431" gradientUnits="userSpaceOnUse">
<stop stop-color="#62AC9F"/>
<stop offset="0.451923" stop-color="#84CEC1"/>
</linearGradient>
<linearGradient id="paint6_linear_983_3001" x1="490.773" y1="192.713" x2="564.614" y2="228.72" gradientUnits="userSpaceOnUse">
<stop offset="0.288462" stop-color="#EADA9D"/>
<stop offset="1" stop-color="#DAC169"/>
</linearGradient>
<linearGradient id="paint7_linear_983_3001" x1="161.373" y1="191.46" x2="234.736" y2="228.431" gradientUnits="userSpaceOnUse">
<stop offset="0.197115" stop-color="#DB7AB9"/>
<stop offset="1" stop-color="#C4476F"/>
</linearGradient>
<linearGradient id="paint8_linear_983_3001" x1="270.924" y1="71.8112" x2="344.287" y2="108.783" gradientUnits="userSpaceOnUse">
<stop offset="0.197115" stop-color="#DB7AB9"/>
<stop offset="1" stop-color="#C4476F"/>
</linearGradient>
<linearGradient id="paint9_linear_983_3001" x1="388.157" y1="230.382" x2="235.369" y2="247.238" gradientUnits="userSpaceOnUse">
<stop offset="0.0913462" stop-color="#445C19"/>
<stop offset="0.653846" stop-color="#72A85A"/>
</linearGradient>
<linearGradient id="paint10_linear_983_3001" x1="130.438" y1="47.5099" x2="281.75" y2="70.3615" gradientUnits="userSpaceOnUse">
<stop stop-color="#62AC9F"/>
<stop offset="0.451923" stop-color="#84CEC1"/>
</linearGradient>
<linearGradient id="paint11_linear_983_3001" x1="489.5" y1="66.0901" x2="335.231" y2="73.9258" gradientUnits="userSpaceOnUse">
<stop stop-color="#62AC9F"/>
<stop offset="0.451923" stop-color="#84CEC1"/>
</linearGradient>
<linearGradient id="paint12_linear_983_3001" x1="420.21" y1="294.612" x2="449.355" y2="158.256" gradientUnits="userSpaceOnUse">
<stop offset="0.0913462" stop-color="#445C19"/>
<stop offset="0.653846" stop-color="#72A85A"/>
</linearGradient>
<linearGradient id="paint13_linear_983_3001" x1="334" y1="189" x2="334" y2="117" gradientUnits="userSpaceOnUse">
<stop offset="0.197115" stop-color="#DB7AB9"/>
<stop offset="1" stop-color="#C4476F"/>
</linearGradient>
<linearGradient id="paint14_linear_983_3001" x1="468.5" y1="208" x2="468.5" y2="97" gradientUnits="userSpaceOnUse">
<stop offset="0.100962" stop-color="#DF6DB7"/>
<stop offset="1" stop-color="#B85172"/>
</linearGradient>
<linearGradient id="paint15_linear_983_3001" x1="320" y1="130.693" x2="357" y2="140.307" gradientUnits="userSpaceOnUse">
<stop stop-color="#62AC9F"/>
<stop offset="0.451923" stop-color="#84CEC1"/>
</linearGradient>
</defs>
</svg>
