<svg width="522" height="409" viewBox="0 0 522 409" fill="none" xmlns="http://www.w3.org/2000/svg">
<path d="M387.732 324.558C434.266 346.918 459.699 358.249 471.412 317.223C465.833 273.301 451.534 261.661 421.743 245.814C449.989 211.737 465.352 192.603 440.729 158.882C475.819 104.134 470.606 -6.68878 445.521 2.546C420.436 11.7808 322.587 154.023 322.587 154.023C377.308 204.796 388.504 255.747 387.732 324.558Z" fill="url(#paint0_linear_1038_3080)"/>
<path d="M133.287 317.736C88.8331 343.972 64.4608 357.425 49.2998 317.552C51.1188 273.321 64.3734 260.508 92.7028 242.186C61.6626 210.641 44.7299 192.888 66.3885 157.199C26.7716 105.645 22.5326 -5.20135 48.3082 1.86329C74.0837 8.92793 183.67 142.303 183.67 142.303C133.477 197.54 126.661 249.252 133.287 317.736Z" fill="url(#paint1_linear_1038_3080)"/>
<circle cx="257.496" cy="259.5" r="148.5" fill="#ECE1BC"/>
<path d="M189.996 391.723L190.555 391.728C241.354 414.254 270.592 414.812 324.996 392.988C312.416 373.023 302.115 363.829 260.348 361.996C219.393 362.614 202.336 367.783 189.996 391.723Z" fill="#445C19"/>
<path d="M316.502 351.417C306.552 323.98 308.435 307.789 316.502 278.445L198.806 275.996C204.785 306.278 205.294 322.981 190.992 351.417H316.502Z" fill="#362C2C" stroke="#4C3A3A"/>
<path d="M263.065 340.48L267.562 362.934H241.078L246.575 340.48H263.065Z" fill="#D7D1B9"/>
<circle cx="260.657" cy="181.579" r="16.6963" fill="#362C2C" stroke="#4C3A3A"/>
<ellipse cx="310.454" cy="269.377" rx="12.954" ry="16.4084" fill="#D7D1B9"/>
<ellipse cx="204.233" cy="267.36" rx="12.6661" ry="16.6963" fill="#D7D1B9"/>
<ellipse cx="257.779" cy="269.375" rx="58.7248" ry="75.1332" fill="#D7D1B9"/>
<path d="M259.087 194.82C293.805 203.095 314.536 229.593 324.563 257.437C295.734 263.797 270.814 246.186 260.553 214.388C252.246 248.143 218.345 251.574 192.145 253.035C201.97 226.007 216.921 201.534 259.087 194.82Z" fill="#362C2C" stroke="#4C3A3A"/>
<ellipse cx="242.492" cy="268.383" rx="4.5" ry="9.5" fill="black"/>
<ellipse cx="221.992" cy="295.383" rx="10" ry="9.5" fill="#F3C4C4"/>
<ellipse cx="295.992" cy="295.383" rx="10" ry="9.5" fill="#F3C4C4"/>
<ellipse cx="273.492" cy="268.383" rx="4.5" ry="9.5" fill="black"/>
<path d="M239.992 316.883C254.233 326.523 262.229 327.162 276.492 316.883" stroke="black"/>
<defs>
<linearGradient id="paint0_linear_1038_3080" x1="378.378" y1="15.432" x2="442.343" y2="345.534" gradientUnits="userSpaceOnUse">
<stop offset="0.288462" stop-color="#EADA9D"/>
<stop offset="1" stop-color="#DAC169"/>
</linearGradient>
<linearGradient id="paint1_linear_1038_3080" x1="116.294" y1="8.9854" x2="80.6683" y2="343.281" gradientUnits="userSpaceOnUse">
<stop offset="0.288462" stop-color="#EADA9D"/>
<stop offset="1" stop-color="#DAC169"/>
</linearGradient>
</defs>
</svg>
