<svg width="1327" height="374" viewBox="0 0 1327 374" fill="none" xmlns="http://www.w3.org/2000/svg">
<path d="M71.1328 78.3789L71.923 173.369" stroke="black"/>
<g filter="url(#filter0_f_1016_3074)">
<path d="M70.661 145.758C122.62 145.758 135.217 80.082 135.217 80.082C135.217 80.082 87.2169 57.9136 70.6609 108.469L70.661 145.758Z" fill="url(#paint0_linear_1016_3074)"/>
</g>
<g filter="url(#filter1_f_1016_3074)">
<path d="M74.6013 146.121C22.1779 153.822 5.72612 90.7284 5.72612 90.7284C5.72612 90.7284 52.893 61.6877 72.477 109.238L74.6013 146.121Z" fill="url(#paint1_linear_1016_3074)"/>
</g>
<path d="M86 51.207C86 44.8418 84.4196 38.7373 81.6066 34.2365C78.7936 29.7356 74.9782 27.207 71 27.207C67.0218 27.207 63.2064 29.7356 60.3934 34.2365C57.5804 38.7373 56 44.8418 56 51.207L71 51.207H86Z" fill="url(#paint2_linear_1016_3074)"/>
<path d="M86.0259 51.1435C87.2122 20.2127 117.166 29.0562 117.193 29.8214C117.22 30.5865 117.743 84.4883 71.1126 79.8221L70.8282 51.5093L86.0259 51.1435Z" fill="url(#paint3_linear_1016_3074)"/>
<path d="M56.3401 50.9681C54.6811 19.5116 24.3086 29.5638 24.2924 30.3439C24.2762 31.1241 24.5302 86.0325 71.9439 79.6516L71.8208 50.8097L56.3401 50.9681Z" fill="url(#paint4_linear_1016_3074)"/>
<path d="M1254.13 78.1719L1254.92 173.162" stroke="black"/>
<g filter="url(#filter2_f_1016_3074)">
<path d="M1253.66 145.551C1305.62 145.551 1318.22 79.875 1318.22 79.875C1318.22 79.875 1270.22 57.7065 1253.66 108.262L1253.66 145.551Z" fill="url(#paint5_linear_1016_3074)"/>
</g>
<g filter="url(#filter3_f_1016_3074)">
<path d="M1257.6 145.918C1205.18 153.619 1188.73 90.5253 1188.73 90.5253C1188.73 90.5253 1235.89 61.4845 1255.48 109.035L1257.6 145.918Z" fill="url(#paint6_linear_1016_3074)"/>
</g>
<path d="M1269 51C1269 44.6348 1267.42 38.5303 1264.61 34.0294C1261.79 29.5286 1257.98 27 1254 27C1250.02 27 1246.21 29.5286 1243.39 34.0294C1240.58 38.5303 1239 44.6348 1239 51L1254 51H1269Z" fill="url(#paint7_linear_1016_3074)"/>
<path d="M1269.03 50.9364C1270.21 20.0056 1300.17 28.8492 1300.19 29.6143C1300.22 30.3795 1300.74 84.2812 1254.11 79.6151L1253.83 51.3023L1269.03 50.9364Z" fill="url(#paint8_linear_1016_3074)"/>
<path d="M1239.34 50.7611C1237.68 19.3046 1207.31 29.3568 1207.29 30.1369C1207.28 30.917 1207.53 85.8254 1254.94 79.4446L1254.82 50.6027L1239.34 50.7611Z" fill="url(#paint9_linear_1016_3074)"/>
<path d="M238 205.746C241.374 102.69 261.548 63.3408 355.088 35.7458M569.278 227.448C588.317 127.186 567.727 50.1425 674.212 27.207C729.925 55.3536 748.877 55.7383 758.643 131.308C761.862 156.224 755.718 181.908 759.53 206.74C766.134 249.759 805.955 280.927 838 285.207" stroke="#00611C" stroke-width="9"/>
<path d="M71.5 167.889C71.5 242.043 88.1297 290.057 146.688 318.596C153.293 321.815 160.77 322.858 168.021 321.664C215.836 313.794 235.757 293.129 255.753 249.615C260.351 239.608 262.514 228.619 263.001 217.616C268.192 100.338 294.437 80.5932 341.816 51.207C388.922 57.3673 406.451 79.6906 422.268 136.377C424.938 145.945 425.785 155.976 425.511 165.906C423.046 255.284 443.118 285.382 500.063 311.616C555.438 306.36 577.914 278.964 599.459 197.955C602.165 187.777 603.306 177.236 603.64 166.709C605.96 93.474 624.735 66.916 683.87 51.207C735.469 88.0295 742.464 123.736 737.048 192.811C736.456 200.355 736.782 208.018 738.501 215.387C753.219 278.453 776.268 295.464 824.172 311.616C891.044 299.897 911.365 270.522 910.093 167.889C916.874 83.7732 939.897 65.7296 992.618 51.207C1042.52 87.6418 1057.88 113.164 1068.95 157.805C1070.61 164.489 1071.43 171.38 1071.84 178.253C1076.5 256.274 1095.31 275.832 1124.07 299.225C1133.76 307.108 1146.52 310.619 1158.67 307.699C1255.01 284.538 1255.17 224.611 1254.99 167.889" stroke="#00611C" stroke-width="9"/>
<path d="M510.797 284.525C504.872 284.461 499.172 286.758 494.951 290.911C490.73 295.063 488.334 300.732 488.29 306.669C488.246 312.606 490.558 318.325 494.717 322.569C498.876 326.812 504.541 329.232 510.466 329.296L510.632 306.91L510.797 284.525Z" fill="url(#paint10_linear_1016_3074)"/>
<path d="M509.974 284.987C479.737 282.964 488.702 240.218 489.451 240.187C490.199 240.157 542.92 239.979 537.864 306.619L510.171 306.727L509.974 284.987Z" fill="url(#paint11_linear_1016_3074)"/>
<path d="M509.488 327.443C478.706 329.484 488.216 373.028 488.979 373.059C489.742 373.091 543.444 373.307 537.704 305.43L509.496 305.302L509.488 327.443Z" fill="url(#paint12_linear_1016_3074)"/>
<path d="M367.402 27.2643C367.455 20.4757 365.555 13.9452 362.121 9.10941C358.687 4.27363 353.999 1.5287 349.09 1.47847C344.18 1.42823 339.451 4.07681 335.942 8.84156C332.433 13.6063 330.432 20.0969 330.379 26.8855L348.89 27.0749L367.402 27.2643Z" fill="url(#paint13_linear_1016_3074)"/>
<path d="M367.017 26.3236C368.69 -8.31895 404.038 1.95239 404.063 2.81005C404.088 3.6677 404.235 64.0691 349.129 58.2765L349.04 26.5496L367.017 26.3236Z" fill="url(#paint14_linear_1016_3074)"/>
<path d="M331.906 25.7683C330.219 -9.4977 294.211 1.39792 294.185 2.27183C294.159 3.14574 293.98 64.6718 350.11 58.096L350.216 25.7782L331.906 25.7683Z" fill="url(#paint15_linear_1016_3074)"/>
<path d="M831.797 281.525C825.872 281.461 820.172 283.758 815.951 287.911C811.73 292.063 809.334 297.732 809.29 303.669C809.246 309.606 811.558 315.325 815.717 319.569C819.876 323.812 825.541 326.232 831.466 326.296L831.632 303.91L831.797 281.525Z" fill="url(#paint16_linear_1016_3074)"/>
<path d="M830.974 281.987C800.737 279.964 809.702 237.218 810.451 237.187C811.199 237.157 863.92 236.979 858.864 303.619L831.171 303.727L830.974 281.987Z" fill="url(#paint17_linear_1016_3074)"/>
<path d="M830.488 324.447C799.706 326.488 809.216 370.032 809.979 370.063C810.742 370.095 864.444 370.311 858.704 302.434L830.496 302.305L830.488 324.447Z" fill="url(#paint18_linear_1016_3074)"/>
<path d="M1007.39 30.744C1007.45 24.5835 1005.55 18.6571 1002.11 14.2687C998.679 9.88033 993.991 7.38934 989.082 7.34376C984.172 7.29817 979.443 9.70172 975.934 14.0257C972.425 18.3496 970.424 24.2397 970.371 30.4003L988.882 30.5721L1007.39 30.744Z" fill="url(#paint19_linear_1016_3074)"/>
<path d="M1007.01 29.8889C1008.68 -1.5487 1044.03 7.77239 1044.06 8.5507C1044.08 9.32901 1044.23 64.1424 989.121 58.8857L989.032 30.094L1007.01 29.8889Z" fill="url(#paint20_linear_1016_3074)"/>
<path d="M971.906 29.3834C970.219 -2.62004 934.211 7.26758 934.185 8.06064C934.159 8.85369 933.98 64.6877 990.11 58.7203L990.216 29.3923L971.906 29.3834Z" fill="url(#paint21_linear_1016_3074)"/>
<path d="M695.398 30.744C695.451 24.5835 693.551 18.6571 690.117 14.2687C686.683 9.88033 681.995 7.38934 677.086 7.34376C672.176 7.29817 667.447 9.70172 663.938 14.0257C660.429 18.3496 658.428 24.2397 658.375 30.4003L676.886 30.5721L695.398 30.744Z" fill="url(#paint22_linear_1016_3074)"/>
<path d="M695.013 29.8889C696.686 -1.5487 732.034 7.77239 732.059 8.5507C732.085 9.32901 732.232 64.1424 677.125 58.8857L677.036 30.094L695.013 29.8889Z" fill="url(#paint23_linear_1016_3074)"/>
<path d="M659.906 29.3834C658.219 -2.62004 622.211 7.26758 622.185 8.06064C622.159 8.85369 621.98 64.6877 678.11 58.7203L678.216 29.3923L659.906 29.3834Z" fill="url(#paint24_linear_1016_3074)"/>
<defs>
<filter id="filter0_f_1016_3074" x="69.6602" y="74.2422" width="66.5586" height="72.5156" filterUnits="userSpaceOnUse" color-interpolation-filters="sRGB">
<feFlood flood-opacity="0" result="BackgroundImageFix"/>
<feBlend mode="normal" in="SourceGraphic" in2="BackgroundImageFix" result="shape"/>
<feGaussianBlur stdDeviation="0.5" result="effect1_foregroundBlur_1016_3074"/>
</filter>
<filter id="filter1_f_1016_3074" x="4.72656" y="80.9492" width="70.875" height="66.8242" filterUnits="userSpaceOnUse" color-interpolation-filters="sRGB">
<feFlood flood-opacity="0" result="BackgroundImageFix"/>
<feBlend mode="normal" in="SourceGraphic" in2="BackgroundImageFix" result="shape"/>
<feGaussianBlur stdDeviation="0.5" result="effect1_foregroundBlur_1016_3074"/>
</filter>
<filter id="filter2_f_1016_3074" x="1252.66" y="74.0352" width="66.5586" height="72.5156" filterUnits="userSpaceOnUse" color-interpolation-filters="sRGB">
<feFlood flood-opacity="0" result="BackgroundImageFix"/>
<feBlend mode="normal" in="SourceGraphic" in2="BackgroundImageFix" result="shape"/>
<feGaussianBlur stdDeviation="0.5" result="effect1_foregroundBlur_1016_3074"/>
</filter>
<filter id="filter3_f_1016_3074" x="1187.73" y="80.7461" width="70.875" height="66.8242" filterUnits="userSpaceOnUse" color-interpolation-filters="sRGB">
<feFlood flood-opacity="0" result="BackgroundImageFix"/>
<feBlend mode="normal" in="SourceGraphic" in2="BackgroundImageFix" result="shape"/>
<feGaussianBlur stdDeviation="0.5" result="effect1_foregroundBlur_1016_3074"/>
</filter>
<linearGradient id="paint0_linear_1016_3074" x1="112.983" y1="72.9115" x2="84.271" y2="139.29" gradientUnits="userSpaceOnUse">
<stop offset="0.0913462" stop-color="#445C19"/>
<stop offset="0.653846" stop-color="#72A85A"/>
</linearGradient>
<linearGradient id="paint1_linear_1016_3074" x1="27.7511" y1="80.3407" x2="62.8719" y2="140.354" gradientUnits="userSpaceOnUse">
<stop offset="0.0913462" stop-color="#445C19"/>
<stop offset="0.653846" stop-color="#72A85A"/>
</linearGradient>
<linearGradient id="paint2_linear_1016_3074" x1="71" y1="27.207" x2="71" y2="75.207" gradientUnits="userSpaceOnUse">
<stop offset="0.197115" stop-color="#DB7AB9"/>
<stop offset="1" stop-color="#C4476F"/>
</linearGradient>
<linearGradient id="paint3_linear_1016_3074" x1="93.8878" y1="28.3926" x2="95.1224" y2="79.6789" gradientUnits="userSpaceOnUse">
<stop offset="0.197115" stop-color="#DB7AB9"/>
<stop offset="1" stop-color="#C4476F"/>
</linearGradient>
<linearGradient id="paint4_linear_1016_3074" x1="48.0028" y1="28.0747" x2="48.5376" y2="80.334" gradientUnits="userSpaceOnUse">
<stop offset="0.197115" stop-color="#DB7AB9"/>
<stop offset="1" stop-color="#C4476F"/>
</linearGradient>
<linearGradient id="paint5_linear_1016_3074" x1="1295.98" y1="72.7044" x2="1267.27" y2="139.083" gradientUnits="userSpaceOnUse">
<stop offset="0.0913462" stop-color="#445C19"/>
<stop offset="0.653846" stop-color="#72A85A"/>
</linearGradient>
<linearGradient id="paint6_linear_1016_3074" x1="1210.75" y1="80.1376" x2="1245.87" y2="140.15" gradientUnits="userSpaceOnUse">
<stop offset="0.0913462" stop-color="#445C19"/>
<stop offset="0.653846" stop-color="#72A85A"/>
</linearGradient>
<linearGradient id="paint7_linear_1016_3074" x1="1254" y1="27" x2="1254" y2="75" gradientUnits="userSpaceOnUse">
<stop offset="0.197115" stop-color="#DB7AB9"/>
<stop offset="1" stop-color="#C4476F"/>
</linearGradient>
<linearGradient id="paint8_linear_1016_3074" x1="1276.89" y1="28.1855" x2="1278.12" y2="79.4719" gradientUnits="userSpaceOnUse">
<stop offset="0.197115" stop-color="#DB7AB9"/>
<stop offset="1" stop-color="#C4476F"/>
</linearGradient>
<linearGradient id="paint9_linear_1016_3074" x1="1231" y1="27.8677" x2="1231.54" y2="80.1269" gradientUnits="userSpaceOnUse">
<stop offset="0.197115" stop-color="#DB7AB9"/>
<stop offset="1" stop-color="#C4476F"/>
</linearGradient>
<linearGradient id="paint10_linear_1016_3074" x1="488.29" y1="306.669" x2="532.974" y2="306.999" gradientUnits="userSpaceOnUse">
<stop offset="0.197115" stop-color="#DB7AB9"/>
<stop offset="1" stop-color="#C4476F"/>
</linearGradient>
<linearGradient id="paint11_linear_1016_3074" x1="487.807" y1="273.503" x2="537.984" y2="273.048" gradientUnits="userSpaceOnUse">
<stop offset="0.197115" stop-color="#DB7AB9"/>
<stop offset="1" stop-color="#C4476F"/>
</linearGradient>
<linearGradient id="paint12_linear_1016_3074" x1="487.01" y1="339.125" x2="538.124" y2="339.145" gradientUnits="userSpaceOnUse">
<stop offset="0.197115" stop-color="#DB7AB9"/>
<stop offset="1" stop-color="#C4476F"/>
</linearGradient>
<linearGradient id="paint13_linear_1016_3074" x1="349.09" y1="1.47847" x2="348.566" y2="52.67" gradientUnits="userSpaceOnUse">
<stop offset="0.197115" stop-color="#DB7AB9"/>
<stop offset="1" stop-color="#C4476F"/>
</linearGradient>
<linearGradient id="paint14_linear_1016_3074" x1="376.513" y1="0.927135" x2="377.236" y2="58.4103" gradientUnits="userSpaceOnUse">
<stop offset="0.197115" stop-color="#DB7AB9"/>
<stop offset="1" stop-color="#C4476F"/>
</linearGradient>
<linearGradient id="paint15_linear_1016_3074" x1="322.246" y1="0.0161789" x2="322.215" y2="58.5772" gradientUnits="userSpaceOnUse">
<stop offset="0.197115" stop-color="#DB7AB9"/>
<stop offset="1" stop-color="#C4476F"/>
</linearGradient>
<linearGradient id="paint16_linear_1016_3074" x1="809.29" y1="303.669" x2="853.974" y2="303.999" gradientUnits="userSpaceOnUse">
<stop offset="0.197115" stop-color="#DB7AB9"/>
<stop offset="1" stop-color="#C4476F"/>
</linearGradient>
<linearGradient id="paint17_linear_1016_3074" x1="808.807" y1="270.503" x2="858.984" y2="270.048" gradientUnits="userSpaceOnUse">
<stop offset="0.197115" stop-color="#DB7AB9"/>
<stop offset="1" stop-color="#C4476F"/>
</linearGradient>
<linearGradient id="paint18_linear_1016_3074" x1="808.01" y1="336.129" x2="859.124" y2="336.149" gradientUnits="userSpaceOnUse">
<stop offset="0.197115" stop-color="#DB7AB9"/>
<stop offset="1" stop-color="#C4476F"/>
</linearGradient>
<linearGradient id="paint19_linear_1016_3074" x1="989.082" y1="7.34376" x2="988.65" y2="53.8002" gradientUnits="userSpaceOnUse">
<stop offset="0.197115" stop-color="#DB7AB9"/>
<stop offset="1" stop-color="#C4476F"/>
</linearGradient>
<linearGradient id="paint20_linear_1016_3074" x1="1016.51" y1="6.84199" x2="1017.1" y2="59.0085" gradientUnits="userSpaceOnUse">
<stop offset="0.197115" stop-color="#DB7AB9"/>
<stop offset="1" stop-color="#C4476F"/>
</linearGradient>
<linearGradient id="paint21_linear_1016_3074" x1="962.246" y1="6.01367" x2="962.22" y2="59.1569" gradientUnits="userSpaceOnUse">
<stop offset="0.197115" stop-color="#DB7AB9"/>
<stop offset="1" stop-color="#C4476F"/>
</linearGradient>
<linearGradient id="paint22_linear_1016_3074" x1="677.086" y1="7.34376" x2="676.654" y2="53.8002" gradientUnits="userSpaceOnUse">
<stop offset="0.197115" stop-color="#DB7AB9"/>
<stop offset="1" stop-color="#C4476F"/>
</linearGradient>
<linearGradient id="paint23_linear_1016_3074" x1="704.509" y1="6.84199" x2="705.105" y2="59.0085" gradientUnits="userSpaceOnUse">
<stop offset="0.197115" stop-color="#DB7AB9"/>
<stop offset="1" stop-color="#C4476F"/>
</linearGradient>
<linearGradient id="paint24_linear_1016_3074" x1="650.246" y1="6.01367" x2="650.22" y2="59.1569" gradientUnits="userSpaceOnUse">
<stop offset="0.197115" stop-color="#DB7AB9"/>
<stop offset="1" stop-color="#C4476F"/>
</linearGradient>
</defs>
</svg>
