<svg width="519" height="407" viewBox="0 0 519 407" fill="none" xmlns="http://www.w3.org/2000/svg">
<path d="M385.423 322.636C431.68 344.863 456.962 356.127 468.606 315.345C463.061 271.683 448.846 260.112 419.232 244.359C447.311 210.484 462.582 191.464 438.106 157.942C472.987 103.52 467.805 -6.64564 442.869 2.53435C417.933 11.7143 320.664 153.113 320.664 153.113C375.061 203.584 386.19 254.233 385.423 322.636Z" fill="url(#paint0_linear_1038_3079)"/>
<path d="M132.497 315.85C88.3067 341.93 64.079 355.303 49.0079 315.667C50.8161 271.699 63.9921 258.962 92.1534 240.748C61.2973 209.391 44.4651 191.743 65.9953 156.265C26.6134 105.017 22.3995 -5.17164 48.0222 1.85108C73.6448 8.87381 182.58 141.457 182.58 141.457C132.686 196.367 125.91 247.772 132.497 315.85Z" fill="url(#paint1_linear_1038_3079)"/>
<ellipse cx="256.996" cy="258.066" rx="148" ry="147" fill="#D193BB"/>
<path d="M266.366 337.547L271.482 361.046H241.355L247.608 337.547H266.366Z" fill="#B2AC92"/>
<ellipse cx="256.093" cy="178.345" rx="26.2102" ry="17.4735" fill="#362C2C" stroke="#4C3A3A"/>
<ellipse cx="309.108" cy="264.211" rx="13.557" ry="17.1722" fill="#B2AC92"/>
<ellipse cx="202.459" cy="266.02" rx="13.557" ry="17.1722" fill="#B2AC92"/>
<path d="M316.644 266.927C316.644 307.525 291.337 335.616 255.185 340.436C213.911 332.603 193.727 307.525 193.727 266.927C193.727 226.329 221.544 195.828 255.486 195.828C289.429 195.828 316.644 226.329 316.644 266.927Z" fill="#B2AC92"/>
<path d="M246.144 194.924C295.207 193.87 308.613 217.82 318.75 260.901C269.918 253.535 249.704 241.912 245.24 222.641C239.359 237.977 227.126 245.432 195.531 254.575C199.632 221.513 211.898 209.258 246.144 194.924Z" fill="#362C2C" stroke="#4C3A3A"/>
<path d="M189.996 389.157L190.539 389.162C239.833 411.209 268.204 411.754 320.996 390.395C308.789 370.854 298.793 361.856 258.264 360.062C218.522 360.667 201.97 365.727 189.996 389.157Z" fill="#445C19"/>
<ellipse cx="229.504" cy="275.426" rx="4.5" ry="9.5" fill="black"/>
<ellipse cx="281.504" cy="275.426" rx="4.5" ry="9.5" fill="black"/>
<path d="M237.004 311.926C251.244 321.566 259.241 322.205 273.504 311.926" stroke="black"/>
<defs>
<linearGradient id="paint0_linear_1038_3079" x1="376.124" y1="15.3439" x2="439.71" y2="343.487" gradientUnits="userSpaceOnUse">
<stop offset="0.197115" stop-color="#DB7AB9"/>
<stop offset="1" stop-color="#C4476F"/>
</linearGradient>
<linearGradient id="paint1_linear_1038_3079" x1="115.605" y1="8.93094" x2="80.1903" y2="341.243" gradientUnits="userSpaceOnUse">
<stop offset="0.197115" stop-color="#DB7AB9"/>
<stop offset="1" stop-color="#C4476F"/>
</linearGradient>
</defs>
</svg>
