<svg width="534" height="342" viewBox="0 0 534 342" fill="none" xmlns="http://www.w3.org/2000/svg">
<ellipse cx="476.358" cy="159.926" rx="14.6037" ry="15.2307" fill="url(#paint0_linear_900_1103)"/>
<ellipse cx="477.401" cy="187.963" rx="14.256" ry="14.8846" fill="url(#paint1_linear_900_1103)"/>
<ellipse cx="476.358" cy="131.885" rx="14.6037" ry="14.8846" fill="url(#paint2_linear_900_1103)"/>
<ellipse cx="20.5731" cy="19.9527" rx="20.5731" ry="19.9527" transform="matrix(0.968143 0.250399 -0.26748 0.963563 483.57 234.359)" fill="#78BEB2"/>
<path d="M440.639 258.251L376.637 256.536" stroke="#00611C" stroke-width="2"/>
<g filter="url(#filter0_f_900_1103)">
<path d="M349.148 257.729C366.763 328.099 432.514 323.396 432.514 323.396C432.514 323.396 425.897 255.013 379.278 256.442C332.659 257.87 349.148 257.729 349.148 257.729Z" fill="url(#paint3_linear_900_1103)"/>
</g>
<path d="M482.279 153.001C494.175 153.001 505.583 148.99 513.995 141.849C522.407 134.708 527.133 125.023 527.133 114.924C527.133 104.826 522.407 95.1409 513.995 88.0001C505.584 80.8593 494.175 76.8477 482.279 76.8477L482.279 114.924L482.279 153.001Z" fill="url(#paint4_linear_900_1103)"/>
<path d="M429.778 69.5792C429.778 60.8059 431.118 52.1186 433.721 44.0131C436.325 35.9076 440.141 28.5428 444.952 22.3392C449.763 16.1355 455.474 11.2145 461.76 7.85714C468.046 4.49975 474.783 2.77172 481.586 2.77172C488.39 2.77172 495.127 4.49974 501.412 7.85714C507.698 11.2145 513.409 16.1355 518.22 22.3392C523.031 28.5428 526.847 35.9076 529.451 44.0131C532.054 52.1186 533.395 60.8059 533.395 69.5792L481.586 69.5792L429.778 69.5792Z" fill="url(#paint5_linear_900_1103)"/>
<ellipse cx="353.978" cy="37.0384" rx="37.9001" ry="37.0384" fill="url(#paint6_linear_900_1103)"/>
<path d="M355.3 132.173C445.806 124.337 429.029 14.2847 429.029 14.2847C429.029 14.2847 353.479 17.0732 354.302 86.9296C355.125 156.786 355.3 132.173 355.3 132.173Z" fill="url(#paint7_linear_900_1103)"/>
<path d="M355.488 132.154C256.958 117.76 280.029 15.6927 280.029 15.6927C280.029 15.6927 362.514 21.7102 358.603 87.2618C354.693 152.813 355.488 132.154 355.488 132.154Z" fill="url(#paint8_linear_900_1103)"/>
<ellipse cx="207.579" cy="86.5396" rx="31.6414" ry="30.4614" fill="url(#paint9_linear_900_1103)"/>
<ellipse cx="453.631" cy="83.0796" rx="13.5606" ry="13.1538" fill="#78BEB2"/>
<path d="M209.442 164.876C286.311 151.79 268.798 67.1117 268.798 67.1117C268.798 67.1117 204.522 75.1037 207.267 129.61C210.013 184.116 209.442 164.876 209.442 164.876Z" fill="url(#paint10_linear_900_1103)"/>
<path d="M208.713 166.242C122.635 145.947 143.328 68.8408 143.328 68.8408C143.328 68.8408 215.419 81.1465 211.665 131.677C207.912 182.207 208.713 166.242 208.713 166.242Z" fill="url(#paint11_linear_900_1103)"/>
<path d="M452.457 116.199C417.801 110.785 426.226 76.2796 426.226 76.2796C426.226 76.2796 455.241 78.7174 453.842 101.453C455.032 98.7027 452.457 116.199 452.457 116.199Z" fill="url(#paint12_linear_900_1103)"/>
<path d="M452.141 116.176C486.294 111.626 481.823 75.9982 481.823 75.9982C481.823 75.9982 453.453 77.6596 452.377 101.015C451.518 98.1601 452.141 116.176 452.141 116.176Z" fill="url(#paint13_linear_900_1103)"/>
<g filter="url(#filter1_f_900_1103)">
<path d="M103.807 151.774C123.765 96.8807 58.0909 76.2208 58.0909 76.2208C58.0909 76.2208 39.3451 121.006 78.3924 139.844C117.44 158.683 103.807 151.774 103.807 151.774Z" fill="url(#paint14_linear_900_1103)"/>
</g>
<ellipse cx="46.9414" cy="120.463" rx="26.7735" ry="25.6153" fill="url(#paint15_linear_900_1103)"/>
<path d="M104.069 151.41C67.164 198.17 15.9348 154.11 15.9348 154.11C15.9348 154.11 44.7866 113.886 80.8685 136.506C116.95 159.126 104.069 151.41 104.069 151.41Z" fill="url(#paint16_linear_900_1103)"/>
<g filter="url(#filter2_f_900_1103)">
<path d="M357.562 262.714C466.833 257.665 448.746 117.171 448.746 117.171C448.746 117.171 357.604 116.625 357.238 205.274C356.871 293.923 357.562 262.714 357.562 262.714Z" fill="url(#paint17_linear_900_1103)"/>
</g>
<g filter="url(#filter3_f_900_1103)">
<path d="M353.779 260.256C238.18 257.5 258.935 117.177 258.935 117.177C258.935 117.177 355.41 114.737 354.781 203.033C354.152 291.328 353.779 260.256 353.779 260.256Z" fill="url(#paint18_linear_900_1103)"/>
</g>
<path d="M482.279 202.849C494.175 202.849 505.583 198.837 513.995 191.696C522.407 184.556 527.133 174.871 527.133 164.772C527.133 154.674 522.407 144.989 513.995 137.848C505.584 130.707 494.175 126.695 482.279 126.695L482.279 164.772L482.279 202.849Z" fill="url(#paint19_linear_900_1103)"/>
<path d="M355.355 130.848L356.051 211.847" stroke="#00611C" stroke-width="2"/>
<path d="M208.599 259.958C98.5916 254.624 113.912 136.599 113.912 136.599C113.912 136.599 205.571 137.045 207.751 211.634C209.931 286.222 208.599 259.958 208.599 259.958Z" fill="url(#paint20_linear_900_1103)"/>
<path d="M132.3 185.178C118.928 227.381 58.7227 215.167 58.7227 215.167C58.7227 215.167 72.5071 163.452 104.018 170.311C135.529 177.169 132.3 185.178 132.3 185.178Z" fill="url(#paint21_linear_900_1103)"/>
<path d="M71.2166 213.739C24.2961 229.504 0.129679 175.159 0.129679 175.159C0.129679 175.159 53.4771 158.691 67.4679 189.763C81.4588 220.836 71.2166 213.739 71.2166 213.739Z" fill="url(#paint22_linear_900_1103)"/>
<path d="M207.23 164.078V262.386" stroke="#00611C" stroke-width="2"/>
<path d="M119.443 173.202C167.029 159.42 186.06 214.33 186.06 214.33C186.06 214.33 132.021 230.164 119.443 198.534C106.864 166.904 119.443 173.202 119.443 173.202Z" fill="url(#paint23_linear_900_1103)"/>
<g filter="url(#filter4_f_900_1103)">
<path d="M64.8902 262.782C118.858 280.155 138.092 220.021 138.092 220.021C138.092 220.021 94.0257 203.603 76.1808 239.453C58.3359 275.303 64.8902 262.782 64.8902 262.782Z" fill="url(#paint24_linear_900_1103)"/>
</g>
<path d="M440.61 257.898C496.139 271.555 517.987 226.185 517.987 226.185C517.987 226.185 466.141 207.283 450.478 237.949C434.815 268.615 440.61 257.898 440.61 257.898Z" fill="url(#paint25_linear_900_1103)"/>
<path d="M439.792 258.824C468.008 307.622 515.566 291.279 515.566 291.279C515.566 291.279 495.905 241.806 461.773 251.978C427.641 262.151 439.792 258.824 439.792 258.824Z" fill="url(#paint26_linear_900_1103)"/>
<path d="M285.163 224.984C274.384 173.13 225.378 194.337 225.346 195.463C225.314 196.588 225.811 275.791 318.578 266.587L318.337 224.984L285.163 224.984Z" fill="url(#paint27_linear_900_1103)"/>
<path d="M345.893 224.704C348.214 180.088 406.821 192.844 406.873 193.948C406.926 195.051 407.948 272.803 316.715 266.072L316.158 225.232L345.893 224.704Z" fill="url(#paint28_linear_900_1103)"/>
<path d="M259.209 294.529C262.911 249.754 356.39 262.555 356.474 263.663C356.558 264.771 358.188 342.799 212.669 336.044L211.781 295.058L259.209 294.529Z" fill="url(#paint29_linear_900_1103)"/>
<path d="M166.556 294.285C161.392 248.749 66.6043 263.315 66.5534 264.445C66.5025 265.574 67.2716 345.059 215.239 335.799L214.867 294.048L166.556 294.285Z" fill="url(#paint30_linear_900_1103)"/>
<path d="M257.994 295.617C257.994 286.804 252.976 278.352 244.042 272.12C235.109 265.888 222.992 262.387 210.359 262.387C197.725 262.387 185.608 265.888 176.675 272.12C167.741 278.352 162.723 286.804 162.723 295.617L210.359 295.617H257.994Z" fill="url(#paint31_linear_900_1103)"/>
<path d="M204.387 258.967C313.357 256.944 307.538 137.342 307.538 137.342C307.538 137.342 217.058 134.993 209.031 210.215C201.004 285.437 204.387 258.967 204.387 258.967Z" fill="url(#paint32_linear_900_1103)"/>
<path d="M347.013 224.999C347.013 216.37 343.716 208.093 337.847 201.991C331.979 195.889 324.019 192.461 315.719 192.461C307.42 192.461 299.46 195.889 293.591 201.991C287.723 208.093 284.426 216.37 284.426 224.999L315.719 224.999H347.013Z" fill="url(#paint33_linear_900_1103)"/>
<defs>
<filter id="filter0_f_900_1103" x="345.316" y="255.418" width="88.1992" height="69.043" filterUnits="userSpaceOnUse" color-interpolation-filters="sRGB">
<feFlood flood-opacity="0" result="BackgroundImageFix"/>
<feBlend mode="normal" in="SourceGraphic" in2="BackgroundImageFix" result="shape"/>
<feGaussianBlur stdDeviation="0.5" result="effect1_foregroundBlur_900_1103"/>
</filter>
<filter id="filter1_f_900_1103" x="52.5938" y="75.2227" width="55.9883" height="78.7891" filterUnits="userSpaceOnUse" color-interpolation-filters="sRGB">
<feFlood flood-opacity="0" result="BackgroundImageFix"/>
<feBlend mode="normal" in="SourceGraphic" in2="BackgroundImageFix" result="shape"/>
<feGaussianBlur stdDeviation="0.5" result="effect1_foregroundBlur_900_1103"/>
</filter>
<filter id="filter2_f_900_1103" x="356.129" y="116.172" width="94.7344" height="152.871" filterUnits="userSpaceOnUse" color-interpolation-filters="sRGB">
<feFlood flood-opacity="0" result="BackgroundImageFix"/>
<feBlend mode="normal" in="SourceGraphic" in2="BackgroundImageFix" result="shape"/>
<feGaussianBlur stdDeviation="0.5" result="effect1_foregroundBlur_900_1103"/>
</filter>
<filter id="filter3_f_900_1103" x="256.488" y="116.172" width="99.2969" height="150.387" filterUnits="userSpaceOnUse" color-interpolation-filters="sRGB">
<feFlood flood-opacity="0" result="BackgroundImageFix"/>
<feBlend mode="normal" in="SourceGraphic" in2="BackgroundImageFix" result="shape"/>
<feGaussianBlur stdDeviation="0.5" result="effect1_foregroundBlur_900_1103"/>
</filter>
<filter id="filter4_f_900_1103" x="62.7148" y="215.27" width="76.375" height="51.6641" filterUnits="userSpaceOnUse" color-interpolation-filters="sRGB">
<feFlood flood-opacity="0" result="BackgroundImageFix"/>
<feBlend mode="normal" in="SourceGraphic" in2="BackgroundImageFix" result="shape"/>
<feGaussianBlur stdDeviation="0.5" result="effect1_foregroundBlur_900_1103"/>
</filter>
<linearGradient id="paint0_linear_900_1103" x1="476.358" y1="144.695" x2="476.358" y2="175.157" gradientUnits="userSpaceOnUse">
<stop offset="0.197115" stop-color="#DB7AB9"/>
<stop offset="1" stop-color="#C4476F"/>
</linearGradient>
<linearGradient id="paint1_linear_900_1103" x1="477.401" y1="173.078" x2="477.401" y2="202.847" gradientUnits="userSpaceOnUse">
<stop offset="0.197115" stop-color="#DB7AB9"/>
<stop offset="1" stop-color="#C4476F"/>
</linearGradient>
<linearGradient id="paint2_linear_900_1103" x1="476.358" y1="117" x2="476.358" y2="146.769" gradientUnits="userSpaceOnUse">
<stop offset="0.197115" stop-color="#DB7AB9"/>
<stop offset="1" stop-color="#C4476F"/>
</linearGradient>
<linearGradient id="paint3_linear_900_1103" x1="422.355" y1="312.531" x2="358.712" y2="312.044" gradientUnits="userSpaceOnUse">
<stop offset="0.0913462" stop-color="#445C19"/>
<stop offset="0.653846" stop-color="#72A85A"/>
</linearGradient>
<linearGradient id="paint4_linear_900_1103" x1="527.133" y1="114.924" x2="437.424" y2="114.924" gradientUnits="userSpaceOnUse">
<stop offset="0.288462" stop-color="#EADA9D"/>
<stop offset="1" stop-color="#DAC169"/>
</linearGradient>
<linearGradient id="paint5_linear_900_1103" x1="533.395" y1="86.9385" x2="427.098" y2="65.5194" gradientUnits="userSpaceOnUse">
<stop stop-color="#62AC9F"/>
<stop offset="0.451923" stop-color="#84CEC1"/>
</linearGradient>
<linearGradient id="paint6_linear_900_1103" x1="316.078" y1="27.4143" x2="391.653" y2="47.5087" gradientUnits="userSpaceOnUse">
<stop stop-color="#62AC9F"/>
<stop offset="0.451923" stop-color="#84CEC1"/>
</linearGradient>
<linearGradient id="paint7_linear_900_1103" x1="378.275" y1="26.7678" x2="406.178" y2="121.33" gradientUnits="userSpaceOnUse">
<stop offset="0.197115" stop-color="#DB7AB9"/>
<stop offset="1" stop-color="#C4476F"/>
</linearGradient>
<linearGradient id="paint8_linear_900_1103" x1="335.056" y1="30.6207" x2="306.009" y2="118.992" gradientUnits="userSpaceOnUse">
<stop offset="0.197115" stop-color="#DB7AB9"/>
<stop offset="1" stop-color="#C4476F"/>
</linearGradient>
<linearGradient id="paint9_linear_900_1103" x1="175.937" y1="78.6245" x2="238.906" y2="95.6199" gradientUnits="userSpaceOnUse">
<stop stop-color="#62AC9F"/>
<stop offset="0.451923" stop-color="#84CEC1"/>
</linearGradient>
<linearGradient id="paint10_linear_900_1103" x1="225.928" y1="80.7686" x2="252.125" y2="152.614" gradientUnits="userSpaceOnUse">
<stop offset="0.288462" stop-color="#EADA9D"/>
<stop offset="1" stop-color="#DAC169"/>
</linearGradient>
<linearGradient id="paint11_linear_900_1103" x1="191.365" y1="85.5231" x2="165.155" y2="151.299" gradientUnits="userSpaceOnUse">
<stop offset="0.288462" stop-color="#EADA9D"/>
<stop offset="1" stop-color="#DAC169"/>
</linearGradient>
<linearGradient id="paint12_linear_900_1103" x1="430.239" y1="82.4334" x2="435.485" y2="114.333" gradientUnits="userSpaceOnUse">
<stop offset="0.0913462" stop-color="#445C19"/>
<stop offset="0.653846" stop-color="#72A85A"/>
</linearGradient>
<linearGradient id="paint13_linear_900_1103" x1="477.277" y1="82.1929" x2="470.443" y2="115.098" gradientUnits="userSpaceOnUse">
<stop offset="0.0913462" stop-color="#445C19"/>
<stop offset="0.653846" stop-color="#72A85A"/>
</linearGradient>
<linearGradient id="paint14_linear_900_1103" x1="70.4145" y1="83.7567" x2="117.186" y2="118.342" gradientUnits="userSpaceOnUse">
<stop offset="0.0913462" stop-color="#445C19"/>
<stop offset="0.653846" stop-color="#72A85A"/>
</linearGradient>
<linearGradient id="paint15_linear_900_1103" x1="20.168" y1="113.807" x2="73.4036" y2="128.265" gradientUnits="userSpaceOnUse">
<stop stop-color="#62AC9F"/>
<stop offset="0.451923" stop-color="#84CEC1"/>
</linearGradient>
<linearGradient id="paint16_linear_900_1103" x1="40.8427" y1="130.455" x2="80.1429" y2="175.501" gradientUnits="userSpaceOnUse">
<stop offset="0.197115" stop-color="#DB7AB9"/>
<stop offset="1" stop-color="#C4476F"/>
</linearGradient>
<linearGradient id="paint17_linear_900_1103" x1="445.932" y1="146.39" x2="415.421" y2="259.341" gradientUnits="userSpaceOnUse">
<stop offset="0.0913462" stop-color="#445C19"/>
<stop offset="0.653846" stop-color="#72A85A"/>
</linearGradient>
<linearGradient id="paint18_linear_900_1103" x1="261.578" y1="146.224" x2="292.16" y2="258.214" gradientUnits="userSpaceOnUse">
<stop offset="0.0913462" stop-color="#445C19"/>
<stop offset="0.653846" stop-color="#72A85A"/>
</linearGradient>
<linearGradient id="paint19_linear_900_1103" x1="527.133" y1="164.772" x2="437.424" y2="164.772" gradientUnits="userSpaceOnUse">
<stop offset="0.288462" stop-color="#EADA9D"/>
<stop offset="1" stop-color="#DAC169"/>
</linearGradient>
<linearGradient id="paint20_linear_900_1103" x1="117.339" y1="161.21" x2="138.607" y2="259.093" gradientUnits="userSpaceOnUse">
<stop offset="0.0913462" stop-color="#445C19"/>
<stop offset="0.653846" stop-color="#72A85A"/>
</linearGradient>
<linearGradient id="paint21_linear_900_1103" x1="72.0176" y1="185.376" x2="119.261" y2="210.958" gradientUnits="userSpaceOnUse">
<stop offset="0.288462" stop-color="#EADA9D"/>
<stop offset="1" stop-color="#DAC169"/>
</linearGradient>
<linearGradient id="paint22_linear_900_1103" x1="34.4406" y1="169.123" x2="41.731" y2="219.047" gradientUnits="userSpaceOnUse">
<stop offset="0.288462" stop-color="#EADA9D"/>
<stop offset="1" stop-color="#DAC169"/>
</linearGradient>
<linearGradient id="paint23_linear_900_1103" x1="151.815" y1="219.378" x2="146.655" y2="169.452" gradientUnits="userSpaceOnUse">
<stop offset="0.288462" stop-color="#EADA9D"/>
<stop offset="1" stop-color="#DAC169"/>
</linearGradient>
<linearGradient id="paint24_linear_900_1103" x1="130.905" y1="231.359" x2="100.817" y2="276.504" gradientUnits="userSpaceOnUse">
<stop offset="0.0913462" stop-color="#445C19"/>
<stop offset="0.653846" stop-color="#72A85A"/>
</linearGradient>
<linearGradient id="paint25_linear_900_1103" x1="481.716" y1="219.768" x2="477.792" y2="263.168" gradientUnits="userSpaceOnUse">
<stop offset="0.197115" stop-color="#DB7AB9"/>
<stop offset="1" stop-color="#C4476F"/>
</linearGradient>
<linearGradient id="paint26_linear_900_1103" x1="496.215" y1="261.339" x2="461.925" y2="289.185" gradientUnits="userSpaceOnUse">
<stop offset="0.197115" stop-color="#DB7AB9"/>
<stop offset="1" stop-color="#C4476F"/>
</linearGradient>
<linearGradient id="paint27_linear_900_1103" x1="318.299" y1="218.388" x2="228.079" y2="247.043" gradientUnits="userSpaceOnUse">
<stop stop-color="#62AC9F"/>
<stop offset="0.451923" stop-color="#84CEC1"/>
</linearGradient>
<linearGradient id="paint28_linear_900_1103" x1="316.088" y1="220.083" x2="404.622" y2="247.049" gradientUnits="userSpaceOnUse">
<stop stop-color="#62AC9F"/>
<stop offset="0.451923" stop-color="#84CEC1"/>
</linearGradient>
<linearGradient id="paint29_linear_900_1103" x1="283.744" y1="261.595" x2="284.573" y2="335.87" gradientUnits="userSpaceOnUse">
<stop offset="0.197115" stop-color="#DB7AB9"/>
<stop offset="1" stop-color="#C4476F"/>
</linearGradient>
<linearGradient id="paint30_linear_900_1103" x1="140.548" y1="261.148" x2="140.919" y2="336.805" gradientUnits="userSpaceOnUse">
<stop offset="0.197115" stop-color="#DB7AB9"/>
<stop offset="1" stop-color="#C4476F"/>
</linearGradient>
<linearGradient id="paint31_linear_900_1103" x1="210.359" y1="262.387" x2="210.359" y2="328.848" gradientUnits="userSpaceOnUse">
<stop offset="0.197115" stop-color="#DB7AB9"/>
<stop offset="1" stop-color="#C4476F"/>
</linearGradient>
<linearGradient id="paint32_linear_900_1103" x1="302.217" y1="162.08" x2="276.713" y2="261.055" gradientUnits="userSpaceOnUse">
<stop offset="0.0913462" stop-color="#445C19"/>
<stop offset="0.653846" stop-color="#72A85A"/>
</linearGradient>
<linearGradient id="paint33_linear_900_1103" x1="284.426" y1="216.545" x2="347.312" y2="232.26" gradientUnits="userSpaceOnUse">
<stop stop-color="#62AC9F"/>
<stop offset="0.451923" stop-color="#84CEC1"/>
</linearGradient>
</defs>
</svg>
