<svg width="269" height="412" viewBox="0 0 269 412" fill="none" xmlns="http://www.w3.org/2000/svg">
<path d="M120.213 207.553C121.854 169.186 184.561 160.709 184.561 160.709C184.561 160.709 204.076 196.433 155.591 208.022L120.213 207.553Z" fill="url(#paint0_linear_1049_3082)"/>
<path d="M120.245 207.349C118.565 245.696 180.676 256.033 180.676 256.033C180.676 256.033 203.33 220.958 155.742 207.939L120.245 207.349Z" fill="url(#paint1_linear_1049_3082)"/>
<g filter="url(#filter0_f_1049_3082)">
<path d="M180.492 208.721C178.471 238.67 213.604 244.861 213.604 244.861C213.604 244.861 227.476 216.357 200.744 208.721L180.492 208.721Z" fill="url(#paint2_linear_1049_3082)"/>
</g>
<g filter="url(#filter1_f_1049_3082)">
<path d="M180.624 208.622C179.506 178.544 214.203 172.724 214.203 172.724C214.203 172.724 227.064 201.659 200.447 208.622L180.624 208.622Z" fill="url(#paint3_linear_1049_3082)"/>
</g>
<path d="M243.728 198.372C249.858 198.372 255.738 199.468 260.073 201.419C264.408 203.37 266.844 206.015 266.844 208.774C266.844 211.533 264.408 214.178 260.073 216.129C255.738 218.08 249.858 219.176 243.728 219.176L243.728 208.774L243.728 198.372Z" fill="url(#paint4_linear_1049_3082)"/>
<path d="M244.857 198.402C276.511 197.616 267.461 177.756 266.678 177.738C265.895 177.72 210.732 177.374 215.507 208.29L244.482 208.479L244.857 198.402Z" fill="url(#paint5_linear_1049_3082)"/>
<path d="M245.037 218.086C277.23 219.185 266.943 239.323 266.144 239.333C265.346 239.344 209.152 239.176 215.682 207.74L245.199 207.822L245.037 218.086Z" fill="url(#paint6_linear_1049_3082)"/>
<g filter="url(#filter2_f_1049_3082)">
<path d="M71.2665 199.716C69.8666 199.71 68.5218 200.299 67.5279 201.352C66.534 202.405 65.9724 203.836 65.9667 205.33C65.9611 206.825 66.5117 208.26 67.4976 209.32C68.4834 210.381 69.8237 210.98 71.2236 210.985L71.245 205.35L71.2665 199.716Z" fill="url(#paint7_linear_1049_3082)"/>
</g>
<g filter="url(#filter3_f_1049_3082)">
<path d="M70.8964 199.584C63.7334 198.063 65.6946 188.309 65.8764 188.3C66.0583 188.291 78.8655 188.147 77.6882 204.999L70.961 205.078L70.8964 199.584Z" fill="url(#paint8_linear_1049_3082)"/>
</g>
<g filter="url(#filter4_f_1049_3082)">
<path d="M70.9832 210.612C63.6351 211.184 65.9408 222.172 66.123 222.179C66.3051 222.185 79.1278 222.142 77.7029 204.997L70.9675 205.016L70.9832 210.612Z" fill="url(#paint9_linear_1049_3082)"/>
</g>
<g filter="url(#filter5_f_1049_3082)">
<path d="M53.1922 192.78C53.1868 194.18 53.7754 195.525 54.8283 196.519C55.8813 197.513 57.3123 198.074 58.8068 198.08C60.3012 198.086 61.7365 197.535 62.7969 196.549C63.8574 195.563 64.4562 194.223 64.4615 192.823L58.8268 192.802L53.1922 192.78Z" fill="url(#paint10_linear_1049_3082)"/>
</g>
<g filter="url(#filter6_f_1049_3082)">
<path d="M53.0648 193.158C51.5431 200.321 41.7894 198.36 41.7803 198.178C41.7713 197.996 41.6277 185.189 58.4797 186.366L58.5588 193.094L53.0648 193.158Z" fill="url(#paint11_linear_1049_3082)"/>
</g>
<g filter="url(#filter7_f_1049_3082)">
<path d="M64.0928 193.068C64.6645 200.416 75.6526 198.11 75.6591 197.928C75.6657 197.746 75.6226 184.923 58.4777 186.348L58.4967 193.083L64.0928 193.068Z" fill="url(#paint12_linear_1049_3082)"/>
</g>
<g filter="url(#filter8_f_1049_3082)">
<path d="M45.2804 210.632C46.6803 210.637 48.0251 210.049 49.019 208.996C50.0129 207.943 50.5745 206.512 50.5801 205.017C50.5858 203.523 50.0352 202.088 49.0493 201.027C48.0634 199.967 46.7231 199.368 45.3233 199.363L45.3018 204.997L45.2804 210.632Z" fill="url(#paint13_linear_1049_3082)"/>
</g>
<g filter="url(#filter9_f_1049_3082)">
<path d="M45.6543 210.759C52.8174 212.281 50.8562 222.035 50.6744 222.044C50.4925 222.053 37.6853 222.196 38.8626 205.344L45.5898 205.265L45.6543 210.759Z" fill="url(#paint14_linear_1049_3082)"/>
</g>
<g filter="url(#filter10_f_1049_3082)">
<path d="M45.5637 199.731C52.9117 199.16 50.6061 188.172 50.4239 188.165C50.2418 188.159 37.4191 188.202 38.844 205.346L45.5794 205.328L45.5637 199.731Z" fill="url(#paint15_linear_1049_3082)"/>
</g>
<g filter="url(#filter11_f_1049_3082)">
<path d="M64.7883 217.184C64.7936 215.785 64.2051 214.44 63.1521 213.446C62.0992 212.452 60.6681 211.89 59.1737 211.885C57.6793 211.879 56.244 212.43 55.1835 213.416C54.1231 214.401 53.5243 215.742 53.519 217.142L59.1536 217.163L64.7883 217.184Z" fill="url(#paint16_linear_1049_3082)"/>
</g>
<g filter="url(#filter12_f_1049_3082)">
<path d="M64.9235 216.81C66.4452 209.647 76.1989 211.609 76.2079 211.79C76.217 211.972 76.3605 224.78 59.5085 223.602L59.4295 216.875L64.9235 216.81Z" fill="url(#paint17_linear_1049_3082)"/>
</g>
<g filter="url(#filter13_f_1049_3082)">
<path d="M53.8916 216.897C53.3198 209.549 42.3318 211.855 42.3253 212.037C42.3187 212.219 42.3618 225.042 59.5066 223.617L59.4877 216.882L53.8916 216.897Z" fill="url(#paint18_linear_1049_3082)"/>
</g>
<path d="M19.794 192.017C15.6435 192.017 11.663 193.307 8.72816 195.604C5.79331 197.901 4.14453 201.016 4.14453 204.264C4.14453 207.513 5.79331 210.628 8.72815 212.925C11.663 215.221 15.6435 216.512 19.794 216.512L19.794 204.264L19.794 192.017Z" fill="url(#paint19_linear_1049_3082)"/>
<path d="M19.1217 191.974C-2.45716 191.049 3.71254 167.702 4.24635 167.681C4.78016 167.66 42.3847 167.253 39.1294 203.598L19.3769 203.819L19.1217 191.974Z" fill="url(#paint20_linear_1049_3082)"/>
<path d="M18.9964 215.115C-2.94927 216.408 4.06365 240.081 4.60791 240.093C5.15216 240.106 43.459 239.908 39.0074 202.953L18.8859 203.049L18.9964 215.115Z" fill="url(#paint21_linear_1049_3082)"/>
<path d="M45.7953 242.575C45.761 246.725 47.0185 250.716 49.291 253.67C51.5636 256.624 54.6651 258.298 57.9132 258.325C61.1613 258.352 64.2899 256.729 66.6109 253.813C68.9319 250.897 70.255 246.927 70.2893 242.777L58.0423 242.676L45.7953 242.575Z" fill="url(#paint22_linear_1049_3082)"/>
<path d="M45.7467 243.248C44.644 264.819 21.3487 258.457 21.3322 257.923C21.3156 257.389 21.2188 219.782 57.5351 223.337L57.5939 243.091L45.7467 243.248Z" fill="url(#paint23_linear_1049_3082)"/>
<path d="M68.884 243.564C69.996 265.52 93.726 258.702 93.7432 258.158C93.7603 257.614 93.8784 219.307 56.8875 223.453L56.8175 243.575L68.884 243.564Z" fill="url(#paint24_linear_1049_3082)"/>
<path d="M97.2427 217.349C101.393 217.383 105.384 216.126 108.338 213.853C111.291 211.581 112.966 208.479 112.993 205.231C113.019 201.983 111.396 198.855 108.481 196.534C105.565 194.213 101.595 192.889 97.4448 192.855L97.3438 205.102L97.2427 217.349Z" fill="url(#paint25_linear_1049_3082)"/>
<path d="M97.9163 217.398C119.487 218.501 113.125 241.796 112.591 241.812C112.057 241.829 74.4502 241.926 78.0053 205.609L97.7589 205.551L97.9163 217.398Z" fill="url(#paint26_linear_1049_3082)"/>
<path d="M98.232 194.261C120.188 193.149 113.37 169.418 112.826 169.401C112.282 169.384 73.9748 169.266 78.1213 206.257L98.243 206.327L98.232 194.261Z" fill="url(#paint27_linear_1049_3082)"/>
<path d="M71.568 167.714C71.6022 163.564 70.3448 159.573 68.0722 156.619C65.7997 153.666 62.6982 151.991 59.4501 151.964C56.202 151.938 53.0733 153.561 50.7524 156.476C48.4314 159.392 47.1082 163.362 47.074 167.512L59.321 167.613L71.568 167.714Z" fill="url(#paint28_linear_1049_3082)"/>
<path d="M71.6127 167.041C72.7154 145.47 96.0107 151.832 96.0272 152.366C96.0437 152.9 96.1406 190.507 59.8242 186.952L59.7655 167.198L71.6127 167.041Z" fill="url(#paint29_linear_1049_3082)"/>
<path d="M48.4793 166.725C47.3673 144.769 23.6372 151.587 23.6201 152.131C23.603 152.675 23.4849 190.982 60.4757 186.836L60.5458 166.714L48.4793 166.725Z" fill="url(#paint30_linear_1049_3082)"/>
<path d="M53.5573 148.505C15.1898 146.864 6.71323 84.1581 6.71323 84.1581C6.71323 84.1581 42.4367 64.6423 54.0262 113.128L53.5573 148.505Z" fill="url(#paint31_linear_1049_3082)"/>
<path d="M53.353 148.47C91.7002 150.149 102.037 88.0386 102.037 88.0386C102.037 88.0386 66.9615 65.3844 53.9429 112.973L53.353 148.47Z" fill="url(#paint32_linear_1049_3082)"/>
<g filter="url(#filter14_f_1049_3082)">
<path d="M54.7288 88.2263C84.6775 90.2481 90.8683 55.1151 90.8683 55.1151C90.8683 55.1151 62.3651 41.2429 54.7288 67.9749L54.7288 88.2263Z" fill="url(#paint33_linear_1049_3082)"/>
</g>
<g filter="url(#filter15_f_1049_3082)">
<path d="M54.6256 88.0947C24.5482 89.2128 18.7275 54.5156 18.7275 54.5156C18.7275 54.5156 47.663 41.6548 54.6255 68.2718L54.6256 88.0947Z" fill="url(#paint34_linear_1049_3082)"/>
</g>
<path d="M44.3763 24.9873C44.3763 18.8565 45.4721 12.9768 47.4228 8.64166C49.3735 4.30654 52.0193 1.8711 54.778 1.87109C57.5367 1.87109 60.1824 4.30654 62.1331 8.64166C64.0838 12.9768 65.1797 18.8565 65.1797 24.9873L54.778 24.9873L44.3763 24.9873Z" fill="url(#paint35_linear_1049_3082)"/>
<path d="M44.4063 23.8542C43.6197 -7.80049 23.7598 1.25002 23.742 2.03309C23.7242 2.81615 23.3778 57.9794 54.294 53.204L54.4826 24.2286L44.4063 23.8542Z" fill="url(#paint36_linear_1049_3082)"/>
<path d="M64.0894 23.6776C65.1894 -8.51514 85.3267 1.77231 85.3374 2.5707C85.3481 3.36908 85.1797 59.5625 53.7439 53.0324L53.8256 23.5155L64.0894 23.6776Z" fill="url(#paint37_linear_1049_3082)"/>
<path d="M56.8763 263.21C95.2438 264.85 103.72 327.557 103.72 327.557C103.72 327.557 67.9969 347.073 56.4074 298.587L56.8763 263.21Z" fill="url(#paint38_linear_1049_3082)"/>
<path d="M57.0767 263.245C18.7295 261.565 8.3929 323.676 8.3929 323.676C8.3929 323.676 43.4682 346.33 56.4868 298.742L57.0767 263.245Z" fill="url(#paint39_linear_1049_3082)"/>
<g filter="url(#filter16_f_1049_3082)">
<path d="M55.7048 323.489C25.7561 321.467 19.5653 356.6 19.5653 356.6C19.5653 356.6 48.0685 370.472 55.7048 343.74L55.7048 323.489Z" fill="url(#paint40_linear_1049_3082)"/>
</g>
<g filter="url(#filter17_f_1049_3082)">
<path d="M55.8041 323.624C85.8815 322.506 91.7022 357.203 91.7022 357.203C91.7022 357.203 62.7667 370.064 55.8042 343.447L55.8041 323.624Z" fill="url(#paint41_linear_1049_3082)"/>
</g>
<path d="M66.0534 386.724C66.0534 392.854 64.9575 398.734 63.0068 403.069C61.0561 407.404 58.4104 409.84 55.6517 409.84C52.893 409.84 50.2473 407.404 48.2966 403.069C46.3459 398.734 45.25 392.854 45.25 386.724L55.6517 386.724L66.0534 386.724Z" fill="url(#paint42_linear_1049_3082)"/>
<path d="M66.0234 387.853C66.8099 419.508 86.6699 410.457 86.6877 409.674C86.7055 408.891 87.0519 353.728 56.1357 358.503L55.9471 387.478L66.0234 387.853Z" fill="url(#paint43_linear_1049_3082)"/>
<path d="M46.3442 388.033C45.2442 420.226 25.1069 409.939 25.0962 409.14C25.0855 408.342 25.2539 352.148 56.6897 358.679L56.608 388.195L46.3442 388.033Z" fill="url(#paint44_linear_1049_3082)"/>
<path d="M105.227 159.738C79.0849 131.608 117.122 81.0398 117.122 81.0398C117.122 81.0398 156.252 92.261 130.423 134.899L105.227 159.738Z" fill="url(#paint45_linear_1049_3082)"/>
<path d="M105.105 159.571C131.206 187.715 182.209 150.793 182.209 150.793C182.209 150.793 173.176 110.026 130.471 134.733L105.105 159.571Z" fill="url(#paint46_linear_1049_3082)"/>
<path d="M148.418 117.677C168.304 140.163 197.398 119.519 197.398 119.519C197.398 119.519 186.869 89.6187 162.65 103.27L148.418 117.677Z" fill="url(#paint47_linear_1049_3082)"/>
<path d="M148.443 117.511C126.259 97.1688 146.502 68.3938 146.502 68.3938C146.502 68.3938 176.126 79.5792 162.374 103.408L148.443 117.511Z" fill="url(#paint48_linear_1049_3082)"/>
<path d="M185.498 65.4114C189.806 61.0498 194.718 57.637 199.152 55.9238C203.587 54.2106 207.18 54.3373 209.143 56.276C211.106 58.2147 211.276 61.8067 209.617 66.2616C207.959 70.7166 204.606 75.6697 200.298 80.0313L192.898 72.7214L185.498 65.4114Z" fill="url(#paint49_linear_1049_3082)"/>
<path d="M186.316 64.6295C208.002 41.5569 187.513 34.0387 186.95 34.5833C186.387 35.1279 147.374 74.1289 172.724 92.4583L193.221 71.9771L186.316 64.6295Z" fill="url(#paint50_linear_1049_3082)"/>
<path d="M200.444 78.3324C223.85 56.2028 230.947 77.6733 230.393 78.2488C229.84 78.8244 190.23 118.683 172.455 91.9457L193.256 71.004L200.444 78.3324Z" fill="url(#paint51_linear_1049_3082)"/>
<path d="M105.663 257.439C133.954 231.469 184.288 269.815 184.288 269.815C184.288 269.815 172.827 308.875 130.348 282.786L105.663 257.439Z" fill="url(#paint52_linear_1049_3082)"/>
<path d="M105.828 257.319C77.5244 283.247 114.134 334.475 114.134 334.475C114.134 334.475 154.955 325.692 130.511 282.836L105.828 257.319Z" fill="url(#paint53_linear_1049_3082)"/>
<path d="M147.458 300.889C124.851 320.636 145.316 349.857 145.316 349.857C145.316 349.857 175.28 339.511 161.777 315.209L147.458 300.889Z" fill="url(#paint54_linear_1049_3082)"/>
<path d="M147.623 300.912C168.1 278.853 196.75 299.272 196.75 299.272C196.75 299.272 185.384 328.826 161.64 314.929L147.623 300.912Z" fill="url(#paint55_linear_1049_3082)"/>
<path d="M199.494 338.288C203.829 342.623 207.211 347.556 208.897 352C210.583 356.445 210.435 360.038 208.484 361.989C206.533 363.939 202.94 364.088 198.496 362.402C194.051 360.716 189.118 357.333 184.783 352.998L192.138 345.643L199.494 338.288Z" fill="url(#paint56_linear_1049_3082)"/>
<path d="M200.275 339.109C223.214 360.936 230.858 340.493 230.316 339.927C229.775 339.361 191.014 300.11 172.53 325.347L192.885 345.969L200.275 339.109Z" fill="url(#paint57_linear_1049_3082)"/>
<path d="M186.483 353.153C208.469 376.694 186.956 383.659 186.384 383.102C185.811 382.545 146.196 342.691 173.042 325.08L193.856 346.01L186.483 353.153Z" fill="url(#paint58_linear_1049_3082)"/>
<defs>
<filter id="filter0_f_1049_3082" x="179.714" y="208.026" width="38.1854" height="37.5292" filterUnits="userSpaceOnUse" color-interpolation-filters="sRGB">
<feFlood flood-opacity="0" result="BackgroundImageFix"/>
<feBlend mode="normal" in="SourceGraphic" in2="BackgroundImageFix" result="shape"/>
<feGaussianBlur stdDeviation="0.348116" result="effect1_foregroundBlur_1049_3082"/>
</filter>
<filter id="filter1_f_1049_3082" x="179.901" y="172.026" width="38.1034" height="37.2909" filterUnits="userSpaceOnUse" color-interpolation-filters="sRGB">
<feFlood flood-opacity="0" result="BackgroundImageFix"/>
<feBlend mode="normal" in="SourceGraphic" in2="BackgroundImageFix" result="shape"/>
<feGaussianBlur stdDeviation="0.348116" result="effect1_foregroundBlur_1049_3082"/>
</filter>
<filter id="filter2_f_1049_3082" x="65.2686" y="199.019" width="6.69325" height="12.662" filterUnits="userSpaceOnUse" color-interpolation-filters="sRGB">
<feFlood flood-opacity="0" result="BackgroundImageFix"/>
<feBlend mode="normal" in="SourceGraphic" in2="BackgroundImageFix" result="shape"/>
<feGaussianBlur stdDeviation="0.348116" result="effect1_foregroundBlur_1049_3082"/>
</filter>
<filter id="filter3_f_1049_3082" x="64.7999" y="187.605" width="13.662" height="18.1698" filterUnits="userSpaceOnUse" color-interpolation-filters="sRGB">
<feFlood flood-opacity="0" result="BackgroundImageFix"/>
<feBlend mode="normal" in="SourceGraphic" in2="BackgroundImageFix" result="shape"/>
<feGaussianBlur stdDeviation="0.348116" result="effect1_foregroundBlur_1049_3082"/>
</filter>
<filter id="filter4_f_1049_3082" x="64.9444" y="204.3" width="13.5643" height="18.5761" filterUnits="userSpaceOnUse" color-interpolation-filters="sRGB">
<feFlood flood-opacity="0" result="BackgroundImageFix"/>
<feBlend mode="normal" in="SourceGraphic" in2="BackgroundImageFix" result="shape"/>
<feGaussianBlur stdDeviation="0.348116" result="effect1_foregroundBlur_1049_3082"/>
</filter>
<filter id="filter5_f_1049_3082" x="52.4952" y="192.085" width="12.662" height="6.69325" filterUnits="userSpaceOnUse" color-interpolation-filters="sRGB">
<feFlood flood-opacity="0" result="BackgroundImageFix"/>
<feBlend mode="normal" in="SourceGraphic" in2="BackgroundImageFix" result="shape"/>
<feGaussianBlur stdDeviation="0.348116" result="effect1_foregroundBlur_1049_3082"/>
</filter>
<filter id="filter6_f_1049_3082" x="41.085" y="185.593" width="18.1698" height="13.662" filterUnits="userSpaceOnUse" color-interpolation-filters="sRGB">
<feFlood flood-opacity="0" result="BackgroundImageFix"/>
<feBlend mode="normal" in="SourceGraphic" in2="BackgroundImageFix" result="shape"/>
<feGaussianBlur stdDeviation="0.348116" result="effect1_foregroundBlur_1049_3082"/>
</filter>
<filter id="filter7_f_1049_3082" x="57.7803" y="185.542" width="18.5761" height="13.5643" filterUnits="userSpaceOnUse" color-interpolation-filters="sRGB">
<feFlood flood-opacity="0" result="BackgroundImageFix"/>
<feBlend mode="normal" in="SourceGraphic" in2="BackgroundImageFix" result="shape"/>
<feGaussianBlur stdDeviation="0.348116" result="effect1_foregroundBlur_1049_3082"/>
</filter>
<filter id="filter8_f_1049_3082" x="44.585" y="198.667" width="6.69325" height="12.662" filterUnits="userSpaceOnUse" color-interpolation-filters="sRGB">
<feFlood flood-opacity="0" result="BackgroundImageFix"/>
<feBlend mode="normal" in="SourceGraphic" in2="BackgroundImageFix" result="shape"/>
<feGaussianBlur stdDeviation="0.348116" result="effect1_foregroundBlur_1049_3082"/>
</filter>
<filter id="filter9_f_1049_3082" x="38.0889" y="204.569" width="13.662" height="18.1698" filterUnits="userSpaceOnUse" color-interpolation-filters="sRGB">
<feFlood flood-opacity="0" result="BackgroundImageFix"/>
<feBlend mode="normal" in="SourceGraphic" in2="BackgroundImageFix" result="shape"/>
<feGaussianBlur stdDeviation="0.348116" result="effect1_foregroundBlur_1049_3082"/>
</filter>
<filter id="filter10_f_1049_3082" x="38.0381" y="187.468" width="13.5643" height="18.5761" filterUnits="userSpaceOnUse" color-interpolation-filters="sRGB">
<feFlood flood-opacity="0" result="BackgroundImageFix"/>
<feBlend mode="normal" in="SourceGraphic" in2="BackgroundImageFix" result="shape"/>
<feGaussianBlur stdDeviation="0.348116" result="effect1_foregroundBlur_1049_3082"/>
</filter>
<filter id="filter11_f_1049_3082" x="52.8233" y="211.187" width="12.662" height="6.69325" filterUnits="userSpaceOnUse" color-interpolation-filters="sRGB">
<feFlood flood-opacity="0" result="BackgroundImageFix"/>
<feBlend mode="normal" in="SourceGraphic" in2="BackgroundImageFix" result="shape"/>
<feGaussianBlur stdDeviation="0.348116" result="effect1_foregroundBlur_1049_3082"/>
</filter>
<filter id="filter12_f_1049_3082" x="58.7335" y="210.714" width="18.1698" height="13.662" filterUnits="userSpaceOnUse" color-interpolation-filters="sRGB">
<feFlood flood-opacity="0" result="BackgroundImageFix"/>
<feBlend mode="normal" in="SourceGraphic" in2="BackgroundImageFix" result="shape"/>
<feGaussianBlur stdDeviation="0.348116" result="effect1_foregroundBlur_1049_3082"/>
</filter>
<filter id="filter13_f_1049_3082" x="41.628" y="210.858" width="18.5761" height="13.5643" filterUnits="userSpaceOnUse" color-interpolation-filters="sRGB">
<feFlood flood-opacity="0" result="BackgroundImageFix"/>
<feBlend mode="normal" in="SourceGraphic" in2="BackgroundImageFix" result="shape"/>
<feGaussianBlur stdDeviation="0.348116" result="effect1_foregroundBlur_1049_3082"/>
</filter>
<filter id="filter14_f_1049_3082" x="54.0342" y="50.8194" width="37.5292" height="38.1854" filterUnits="userSpaceOnUse" color-interpolation-filters="sRGB">
<feFlood flood-opacity="0" result="BackgroundImageFix"/>
<feBlend mode="normal" in="SourceGraphic" in2="BackgroundImageFix" result="shape"/>
<feGaussianBlur stdDeviation="0.348116" result="effect1_foregroundBlur_1049_3082"/>
</filter>
<filter id="filter15_f_1049_3082" x="18.0303" y="50.7139" width="37.2909" height="38.1034" filterUnits="userSpaceOnUse" color-interpolation-filters="sRGB">
<feFlood flood-opacity="0" result="BackgroundImageFix"/>
<feBlend mode="normal" in="SourceGraphic" in2="BackgroundImageFix" result="shape"/>
<feGaussianBlur stdDeviation="0.348116" result="effect1_foregroundBlur_1049_3082"/>
</filter>
<filter id="filter16_f_1049_3082" x="18.8702" y="322.71" width="37.5292" height="38.1854" filterUnits="userSpaceOnUse" color-interpolation-filters="sRGB">
<feFlood flood-opacity="0" result="BackgroundImageFix"/>
<feBlend mode="normal" in="SourceGraphic" in2="BackgroundImageFix" result="shape"/>
<feGaussianBlur stdDeviation="0.348116" result="effect1_foregroundBlur_1049_3082"/>
</filter>
<filter id="filter17_f_1049_3082" x="55.1085" y="322.901" width="37.2909" height="38.1034" filterUnits="userSpaceOnUse" color-interpolation-filters="sRGB">
<feFlood flood-opacity="0" result="BackgroundImageFix"/>
<feBlend mode="normal" in="SourceGraphic" in2="BackgroundImageFix" result="shape"/>
<feGaussianBlur stdDeviation="0.348116" result="effect1_foregroundBlur_1049_3082"/>
</filter>
<linearGradient id="paint0_linear_1049_3082" x1="145.392" y1="154.712" x2="160.541" y2="217.273" gradientUnits="userSpaceOnUse">
<stop offset="0.225962" stop-color="#ABC67A"/>
<stop offset="0.625" stop-color="#699C53"/>
</linearGradient>
<linearGradient id="paint1_linear_1049_3082" x1="140.901" y1="260.848" x2="158.307" y2="197.968" gradientUnits="userSpaceOnUse">
<stop offset="0.225962" stop-color="#ABC67A"/>
<stop offset="0.625" stop-color="#699C53"/>
</linearGradient>
<linearGradient id="paint2_linear_1049_3082" x1="184.107" y1="231.785" x2="213.928" y2="235.574" gradientUnits="userSpaceOnUse">
<stop offset="0.120192" stop-color="#ABD2CB"/>
<stop offset="0.552885" stop-color="#78BEB2"/>
</linearGradient>
<linearGradient id="paint3_linear_1049_3082" x1="184.917" y1="185.351" x2="214.321" y2="182.711" gradientUnits="userSpaceOnUse">
<stop offset="0.120192" stop-color="#ABD2CB"/>
<stop offset="0.552885" stop-color="#78BEB2"/>
</linearGradient>
<linearGradient id="paint4_linear_1049_3082" x1="266.844" y1="208.774" x2="220.611" y2="208.774" gradientUnits="userSpaceOnUse">
<stop offset="0.100962" stop-color="#DF6DB7"/>
<stop offset="1" stop-color="#B85172"/>
</linearGradient>
<linearGradient id="paint5_linear_1049_3082" x1="268.14" y1="193.19" x2="215.695" y2="191.241" gradientUnits="userSpaceOnUse">
<stop offset="0.100962" stop-color="#DF6DB7"/>
<stop offset="1" stop-color="#B85172"/>
</linearGradient>
<linearGradient id="paint6_linear_1049_3082" x1="268.466" y1="223.613" x2="214.992" y2="222.769" gradientUnits="userSpaceOnUse">
<stop offset="0.100962" stop-color="#DF6DB7"/>
<stop offset="1" stop-color="#B85172"/>
</linearGradient>
<linearGradient id="paint7_linear_1049_3082" x1="76.525" y1="204.947" x2="67.958" y2="201.199" gradientUnits="userSpaceOnUse">
<stop offset="0.120192" stop-color="#ABD2CB"/>
<stop offset="0.552885" stop-color="#78BEB2"/>
</linearGradient>
<linearGradient id="paint8_linear_1049_3082" x1="77.6852" y1="195.948" x2="67.1004" y2="192.559" gradientUnits="userSpaceOnUse">
<stop offset="0.120192" stop-color="#ABD2CB"/>
<stop offset="0.552885" stop-color="#78BEB2"/>
</linearGradient>
<linearGradient id="paint9_linear_1049_3082" x1="77.8322" y1="214.216" x2="67.2115" y2="217.743" gradientUnits="userSpaceOnUse">
<stop offset="0.120192" stop-color="#ABD2CB"/>
<stop offset="0.552885" stop-color="#78BEB2"/>
</linearGradient>
<linearGradient id="paint10_linear_1049_3082" x1="58.4236" y1="187.522" x2="54.6753" y2="196.089" gradientUnits="userSpaceOnUse">
<stop offset="0.120192" stop-color="#ABD2CB"/>
<stop offset="0.552885" stop-color="#78BEB2"/>
</linearGradient>
<linearGradient id="paint11_linear_1049_3082" x1="49.4281" y1="186.37" x2="46.0391" y2="196.954" gradientUnits="userSpaceOnUse">
<stop offset="0.120192" stop-color="#ABD2CB"/>
<stop offset="0.552885" stop-color="#78BEB2"/>
</linearGradient>
<linearGradient id="paint12_linear_1049_3082" x1="67.6961" y1="186.219" x2="71.223" y2="196.839" gradientUnits="userSpaceOnUse">
<stop offset="0.120192" stop-color="#ABD2CB"/>
<stop offset="0.552885" stop-color="#78BEB2"/>
</linearGradient>
<linearGradient id="paint13_linear_1049_3082" x1="40.0219" y1="205.401" x2="48.5889" y2="209.149" gradientUnits="userSpaceOnUse">
<stop offset="0.120192" stop-color="#ABD2CB"/>
<stop offset="0.552885" stop-color="#78BEB2"/>
</linearGradient>
<linearGradient id="paint14_linear_1049_3082" x1="38.8656" y1="214.396" x2="49.4503" y2="217.785" gradientUnits="userSpaceOnUse">
<stop offset="0.120192" stop-color="#ABD2CB"/>
<stop offset="0.552885" stop-color="#78BEB2"/>
</linearGradient>
<linearGradient id="paint15_linear_1049_3082" x1="38.7147" y1="196.128" x2="49.3354" y2="192.601" gradientUnits="userSpaceOnUse">
<stop offset="0.120192" stop-color="#ABD2CB"/>
<stop offset="0.552885" stop-color="#78BEB2"/>
</linearGradient>
<linearGradient id="paint16_linear_1049_3082" x1="59.5569" y1="222.443" x2="63.3052" y2="213.876" gradientUnits="userSpaceOnUse">
<stop offset="0.120192" stop-color="#ABD2CB"/>
<stop offset="0.552885" stop-color="#78BEB2"/>
</linearGradient>
<linearGradient id="paint17_linear_1049_3082" x1="68.5602" y1="223.599" x2="71.9492" y2="213.014" gradientUnits="userSpaceOnUse">
<stop offset="0.120192" stop-color="#ABD2CB"/>
<stop offset="0.552885" stop-color="#78BEB2"/>
</linearGradient>
<linearGradient id="paint18_linear_1049_3082" x1="50.2883" y1="223.746" x2="46.7613" y2="213.126" gradientUnits="userSpaceOnUse">
<stop offset="0.120192" stop-color="#ABD2CB"/>
<stop offset="0.552885" stop-color="#78BEB2"/>
</linearGradient>
<linearGradient id="paint19_linear_1049_3082" x1="4.14453" y1="204.264" x2="35.4435" y2="204.264" gradientUnits="userSpaceOnUse">
<stop offset="0.100962" stop-color="#DF6DB7"/>
<stop offset="1" stop-color="#B85172"/>
</linearGradient>
<linearGradient id="paint20_linear_1049_3082" x1="3.24956" y1="185.846" x2="39.0336" y2="185.075" gradientUnits="userSpaceOnUse">
<stop offset="0.100962" stop-color="#DF6DB7"/>
<stop offset="1" stop-color="#B85172"/>
</linearGradient>
<linearGradient id="paint21_linear_1049_3082" x1="3.0248" y1="221.613" x2="39.4842" y2="221.279" gradientUnits="userSpaceOnUse">
<stop offset="0.100962" stop-color="#DF6DB7"/>
<stop offset="1" stop-color="#B85172"/>
</linearGradient>
<linearGradient id="paint22_linear_1049_3082" x1="57.9132" y1="258.325" x2="58.1714" y2="227.027" gradientUnits="userSpaceOnUse">
<stop offset="0.100962" stop-color="#DF6DB7"/>
<stop offset="1" stop-color="#B85172"/>
</linearGradient>
<linearGradient id="paint23_linear_1049_3082" x1="39.4882" y1="259.069" x2="39.0124" y2="223.28" gradientUnits="userSpaceOnUse">
<stop offset="0.100962" stop-color="#DF6DB7"/>
<stop offset="1" stop-color="#B85172"/>
</linearGradient>
<linearGradient id="paint24_linear_1049_3082" x1="75.2503" y1="259.589" x2="75.2172" y2="223.128" gradientUnits="userSpaceOnUse">
<stop offset="0.100962" stop-color="#DF6DB7"/>
<stop offset="1" stop-color="#B85172"/>
</linearGradient>
<linearGradient id="paint25_linear_1049_3082" x1="112.993" y1="205.231" x2="81.6948" y2="204.973" gradientUnits="userSpaceOnUse">
<stop offset="0.100962" stop-color="#DF6DB7"/>
<stop offset="1" stop-color="#B85172"/>
</linearGradient>
<linearGradient id="paint26_linear_1049_3082" x1="113.737" y1="223.656" x2="77.9482" y2="224.132" gradientUnits="userSpaceOnUse">
<stop offset="0.100962" stop-color="#DF6DB7"/>
<stop offset="1" stop-color="#B85172"/>
</linearGradient>
<linearGradient id="paint27_linear_1049_3082" x1="114.257" y1="187.894" x2="77.7957" y2="187.927" gradientUnits="userSpaceOnUse">
<stop offset="0.100962" stop-color="#DF6DB7"/>
<stop offset="1" stop-color="#B85172"/>
</linearGradient>
<linearGradient id="paint28_linear_1049_3082" x1="59.4501" y1="151.964" x2="59.1919" y2="183.262" gradientUnits="userSpaceOnUse">
<stop offset="0.100962" stop-color="#DF6DB7"/>
<stop offset="1" stop-color="#B85172"/>
</linearGradient>
<linearGradient id="paint29_linear_1049_3082" x1="77.8712" y1="151.22" x2="78.3469" y2="187.009" gradientUnits="userSpaceOnUse">
<stop offset="0.100962" stop-color="#DF6DB7"/>
<stop offset="1" stop-color="#B85172"/>
</linearGradient>
<linearGradient id="paint30_linear_1049_3082" x1="42.113" y1="150.7" x2="42.1461" y2="187.161" gradientUnits="userSpaceOnUse">
<stop offset="0.100962" stop-color="#DF6DB7"/>
<stop offset="1" stop-color="#B85172"/>
</linearGradient>
<linearGradient id="paint31_linear_1049_3082" x1="0.71586" y1="123.327" x2="63.2765" y2="108.177" gradientUnits="userSpaceOnUse">
<stop offset="0.225962" stop-color="#ABC67A"/>
<stop offset="0.625" stop-color="#699C53"/>
</linearGradient>
<linearGradient id="paint32_linear_1049_3082" x1="106.852" y1="127.814" x2="43.9723" y2="110.407" gradientUnits="userSpaceOnUse">
<stop offset="0.225962" stop-color="#ABC67A"/>
<stop offset="0.625" stop-color="#699C53"/>
</linearGradient>
<linearGradient id="paint33_linear_1049_3082" x1="77.7926" y1="84.6118" x2="81.5821" y2="54.7911" gradientUnits="userSpaceOnUse">
<stop offset="0.120192" stop-color="#ABD2CB"/>
<stop offset="0.552885" stop-color="#78BEB2"/>
</linearGradient>
<linearGradient id="paint34_linear_1049_3082" x1="31.3551" y1="83.8015" x2="28.7153" y2="54.3981" gradientUnits="userSpaceOnUse">
<stop offset="0.120192" stop-color="#ABD2CB"/>
<stop offset="0.552885" stop-color="#78BEB2"/>
</linearGradient>
<linearGradient id="paint35_linear_1049_3082" x1="54.778" y1="1.87109" x2="54.778" y2="48.1034" gradientUnits="userSpaceOnUse">
<stop offset="0.100962" stop-color="#DF6DB7"/>
<stop offset="1" stop-color="#B85172"/>
</linearGradient>
<linearGradient id="paint36_linear_1049_3082" x1="39.1938" y1="0.570862" x2="37.2451" y2="53.0155" gradientUnits="userSpaceOnUse">
<stop offset="0.100962" stop-color="#DF6DB7"/>
<stop offset="1" stop-color="#B85172"/>
</linearGradient>
<linearGradient id="paint37_linear_1049_3082" x1="69.6171" y1="0.248392" x2="68.7725" y2="53.7229" gradientUnits="userSpaceOnUse">
<stop offset="0.100962" stop-color="#DF6DB7"/>
<stop offset="1" stop-color="#B85172"/>
</linearGradient>
<linearGradient id="paint38_linear_1049_3082" x1="109.718" y1="288.388" x2="47.1571" y2="303.538" gradientUnits="userSpaceOnUse">
<stop offset="0.225962" stop-color="#ABC67A"/>
<stop offset="0.625" stop-color="#699C53"/>
</linearGradient>
<linearGradient id="paint39_linear_1049_3082" x1="3.57774" y1="283.901" x2="66.4574" y2="301.307" gradientUnits="userSpaceOnUse">
<stop offset="0.225962" stop-color="#ABC67A"/>
<stop offset="0.625" stop-color="#699C53"/>
</linearGradient>
<linearGradient id="paint40_linear_1049_3082" x1="32.641" y1="327.103" x2="28.8515" y2="356.924" gradientUnits="userSpaceOnUse">
<stop offset="0.120192" stop-color="#ABD2CB"/>
<stop offset="0.552885" stop-color="#78BEB2"/>
</linearGradient>
<linearGradient id="paint41_linear_1049_3082" x1="79.0746" y1="327.917" x2="81.7144" y2="357.321" gradientUnits="userSpaceOnUse">
<stop offset="0.120192" stop-color="#ABD2CB"/>
<stop offset="0.552885" stop-color="#78BEB2"/>
</linearGradient>
<linearGradient id="paint42_linear_1049_3082" x1="55.6517" y1="409.84" x2="55.6517" y2="363.608" gradientUnits="userSpaceOnUse">
<stop offset="0.100962" stop-color="#DF6DB7"/>
<stop offset="1" stop-color="#B85172"/>
</linearGradient>
<linearGradient id="paint43_linear_1049_3082" x1="71.2359" y1="411.136" x2="73.1846" y2="358.692" gradientUnits="userSpaceOnUse">
<stop offset="0.100962" stop-color="#DF6DB7"/>
<stop offset="1" stop-color="#B85172"/>
</linearGradient>
<linearGradient id="paint44_linear_1049_3082" x1="40.8165" y1="411.463" x2="41.6611" y2="357.988" gradientUnits="userSpaceOnUse">
<stop offset="0.100962" stop-color="#DF6DB7"/>
<stop offset="1" stop-color="#B85172"/>
</linearGradient>
<linearGradient id="paint45_linear_1049_3082" x1="85.3289" y1="104.691" x2="140.483" y2="137.878" gradientUnits="userSpaceOnUse">
<stop offset="0.225962" stop-color="#ABC67A"/>
<stop offset="0.625" stop-color="#699C53"/>
</linearGradient>
<linearGradient id="paint46_linear_1049_3082" x1="157.682" y1="182.474" x2="125.181" y2="125.901" gradientUnits="userSpaceOnUse">
<stop offset="0.225962" stop-color="#ABC67A"/>
<stop offset="0.625" stop-color="#699C53"/>
</linearGradient>
<linearGradient id="paint47_linear_1049_3082" x1="185.651" y1="139.645" x2="160.969" y2="93.515" gradientUnits="userSpaceOnUse">
<stop offset="0.225962" stop-color="#ABC67A"/>
<stop offset="0.625" stop-color="#699C53"/>
</linearGradient>
<linearGradient id="paint48_linear_1049_3082" x1="126.64" y1="79.5141" x2="173.029" y2="104.4" gradientUnits="userSpaceOnUse">
<stop offset="0.225962" stop-color="#ABC67A"/>
<stop offset="0.625" stop-color="#699C53"/>
</linearGradient>
<linearGradient id="paint49_linear_1049_3082" x1="209.143" y1="56.276" x2="176.653" y2="89.1667" gradientUnits="userSpaceOnUse">
<stop offset="0.100962" stop-color="#DF6DB7"/>
<stop offset="1" stop-color="#B85172"/>
</linearGradient>
<linearGradient id="paint50_linear_1049_3082" x1="198.97" y1="44.402" x2="160.728" y2="80.3429" gradientUnits="userSpaceOnUse">
<stop offset="0.100962" stop-color="#DF6DB7"/>
<stop offset="1" stop-color="#B85172"/>
</linearGradient>
<linearGradient id="paint51_linear_1049_3082" x1="220.842" y1="65.549" x2="182.661" y2="102.998" gradientUnits="userSpaceOnUse">
<stop offset="0.100962" stop-color="#DF6DB7"/>
<stop offset="1" stop-color="#B85172"/>
</linearGradient>
<linearGradient id="paint52_linear_1049_3082" x1="160.832" y1="237.878" x2="127.307" y2="292.827" gradientUnits="userSpaceOnUse">
<stop offset="0.225962" stop-color="#ABC67A"/>
<stop offset="0.625" stop-color="#699C53"/>
</linearGradient>
<linearGradient id="paint53_linear_1049_3082" x1="82.604" y1="309.755" x2="139.375" y2="277.6" gradientUnits="userSpaceOnUse">
<stop offset="0.225962" stop-color="#ABC67A"/>
<stop offset="0.625" stop-color="#699C53"/>
</linearGradient>
<linearGradient id="paint54_linear_1049_3082" x1="125.262" y1="337.987" x2="171.543" y2="313.587" gradientUnits="userSpaceOnUse">
<stop offset="0.225962" stop-color="#ABC67A"/>
<stop offset="0.625" stop-color="#699C53"/>
</linearGradient>
<linearGradient id="paint55_linear_1049_3082" x1="185.752" y1="279.342" x2="160.583" y2="325.577" gradientUnits="userSpaceOnUse">
<stop offset="0.225962" stop-color="#ABC67A"/>
<stop offset="0.625" stop-color="#699C53"/>
</linearGradient>
<linearGradient id="paint56_linear_1049_3082" x1="208.484" y1="361.989" x2="175.793" y2="329.297" gradientUnits="userSpaceOnUse">
<stop offset="0.100962" stop-color="#DF6DB7"/>
<stop offset="1" stop-color="#B85172"/>
</linearGradient>
<linearGradient id="paint57_linear_1049_3082" x1="220.424" y1="351.887" x2="184.718" y2="313.425" gradientUnits="userSpaceOnUse">
<stop offset="0.100962" stop-color="#DF6DB7"/>
<stop offset="1" stop-color="#B85172"/>
</linearGradient>
<linearGradient id="paint58_linear_1049_3082" x1="199.142" y1="373.628" x2="161.927" y2="335.219" gradientUnits="userSpaceOnUse">
<stop offset="0.100962" stop-color="#DF6DB7"/>
<stop offset="1" stop-color="#B85172"/>
</linearGradient>
</defs>
</svg>
