<svg width="175" height="227" viewBox="0 0 175 227" fill="none" xmlns="http://www.w3.org/2000/svg">
<path d="M88.0269 169.213C137.117 169.798 148.853 120.328 148.853 120.328C148.853 120.328 103.446 103.041 87.9325 141.044L88.0269 169.213Z" fill="url(#paint0_linear_900_976)"/>
<path d="M88.0035 40.4073C103.939 40.3314 107.781 24.814 107.781 24.814C107.781 24.814 93.0521 19.6525 87.9912 31.6072L88.0035 40.4073Z" fill="url(#paint1_linear_900_976)"/>
<path d="M88.1369 87.0449C117.82 86.9036 124.977 57.9988 124.977 57.9988C124.977 57.9988 97.541 48.3843 88.1139 70.6527L88.1369 87.0449Z" fill="url(#paint2_linear_900_976)"/>
<path d="M88.0338 123.773C130.289 123.572 140.477 82.4247 140.477 82.4247C140.477 82.4247 101.421 68.738 88.0011 100.438L88.0338 123.773Z" fill="url(#paint3_linear_900_976)"/>
<path d="M88.2454 7.19534C94.2061 6.99175 95.4727 1.14436 95.4727 1.14436C95.4727 1.14436 89.9059 -0.624631 88.1441 3.90332L88.2454 7.19534Z" fill="url(#paint4_linear_900_976)"/>
<path d="M87.9077 169.575C38.6641 170.072 26.8685 120.659 26.8685 120.659C26.8685 120.659 72.4093 103.481 87.9894 141.452L87.9077 169.575Z" fill="url(#paint5_linear_900_976)"/>
<path d="M87.9726 123.672C45.8607 123.634 35.5088 82.7509 35.5088 82.7509C35.5088 82.7509 74.3649 68.9894 87.8922 100.465L87.9726 123.672Z" fill="url(#paint6_linear_900_976)"/>
<path d="M88.1899 60.8167C111.605 60.7053 117.25 37.9045 117.25 37.9045C117.25 37.9045 95.6081 30.3204 88.1718 47.8862L88.1899 60.8167Z" fill="url(#paint7_linear_900_976)"/>
<path d="M88.2262 60.7685C64.8012 60.8277 59.0457 37.938 59.0457 37.938C59.0457 37.938 80.6605 30.1523 88.1831 47.764L88.2262 60.7685Z" fill="url(#paint8_linear_900_976)"/>
<path d="M88.3335 7.11294C82.368 7.23038 80.8022 1.42608 80.8022 1.42608C80.8022 1.42608 86.2729 -0.651202 88.2657 3.8012L88.3335 7.11294Z" fill="url(#paint9_linear_900_976)"/>
<path d="M88.1899 26.257C101.26 25.9192 104.144 13.1237 104.144 13.1237C104.144 13.1237 91.9724 9.14435 88.0276 19.0384L88.1899 26.257Z" fill="url(#paint10_linear_900_976)"/>
<path d="M88.2375 26.2538C75.158 26.4228 71.8115 13.6753 71.8115 13.6753C71.8115 13.6753 83.8354 9.20259 88.1379 18.9928L88.2375 26.2538Z" fill="url(#paint11_linear_900_976)"/>
<path d="M87.5457 224.838C149.591 224.542 164.549 164.124 164.549 164.124C164.549 164.124 107.203 144.028 87.4977 190.574L87.5457 224.838Z" fill="url(#paint12_linear_900_976)"/>
<path d="M87.6661 224.672C25.1873 224.829 9.83626 163.778 9.83626 163.778C9.83626 163.778 67.487 143.013 87.551 189.986L87.6661 224.672Z" fill="url(#paint13_linear_900_976)"/>
<path d="M88.2336 86.9853C58.5374 87.0603 51.241 58.0427 51.241 58.0427C51.241 58.0427 78.6425 48.1726 88.1789 70.4993L88.2336 86.9853Z" fill="url(#paint14_linear_900_976)"/>
<path d="M88.3415 14.5971C96.8224 14.5567 98.8671 6.2982 98.8671 6.2982C98.8671 6.2982 91.0284 3.55122 88.335 9.91359L88.3415 14.5971Z" fill="url(#paint15_linear_900_976)"/>
<path d="M88.4769 14.5761C79.9923 14.5976 77.9076 6.30684 77.9076 6.30684C77.9076 6.30684 85.7366 3.48684 88.4613 9.86585L88.4769 14.5761Z" fill="url(#paint16_linear_900_976)"/>
<path d="M88.0825 40.3746C72.1402 40.4148 68.2231 24.8368 68.2231 24.8368C68.2231 24.8368 82.9335 19.5381 88.0532 31.5241L88.0825 40.3746Z" fill="url(#paint17_linear_900_976)"/>
<path d="M88.0035 40.4073C103.939 40.3314 107.781 24.814 107.781 24.814C107.781 24.814 93.0521 19.6525 87.9912 31.6072L88.0035 40.4073Z" fill="url(#paint18_linear_900_976)"/>
<path d="M88.1369 87.0449C117.82 86.9036 124.977 57.9988 124.977 57.9988C124.977 57.9988 97.541 48.3843 88.1139 70.6527L88.1369 87.0449Z" fill="url(#paint19_linear_900_976)"/>
<path d="M88.0338 123.773C130.289 123.572 140.477 82.4247 140.477 82.4247C140.477 82.4247 101.421 68.738 88.0011 100.438L88.0338 123.773Z" fill="url(#paint20_linear_900_976)"/>
<path d="M88.2454 7.19534C94.2061 6.99175 95.4727 1.14436 95.4727 1.14436C95.4727 1.14436 89.9059 -0.624631 88.1441 3.90332L88.2454 7.19534Z" fill="url(#paint21_linear_900_976)"/>
<path d="M87.9077 169.575C38.6641 170.072 26.8685 120.659 26.8685 120.659C26.8685 120.659 72.4093 103.481 87.9894 141.452L87.9077 169.575Z" fill="url(#paint22_linear_900_976)"/>
<path d="M87.9726 123.672C45.8607 123.634 35.5088 82.7509 35.5088 82.7509C35.5088 82.7509 74.3649 68.9894 87.8922 100.465L87.9726 123.672Z" fill="url(#paint23_linear_900_976)"/>
<path d="M88.1899 60.8167C111.605 60.7053 117.25 37.9045 117.25 37.9045C117.25 37.9045 95.6081 30.3204 88.1718 47.8862L88.1899 60.8167Z" fill="url(#paint24_linear_900_976)"/>
<path d="M88.2262 60.7685C64.8012 60.8277 59.0457 37.938 59.0457 37.938C59.0457 37.938 80.6605 30.1523 88.1831 47.764L88.2262 60.7685Z" fill="url(#paint25_linear_900_976)"/>
<path d="M88.3335 7.11294C82.368 7.23038 80.8022 1.42608 80.8022 1.42608C80.8022 1.42608 86.2729 -0.651202 88.2657 3.8012L88.3335 7.11294Z" fill="url(#paint26_linear_900_976)"/>
<path d="M88.1899 26.257C101.26 25.9192 104.144 13.1237 104.144 13.1237C104.144 13.1237 91.9724 9.14435 88.0276 19.0384L88.1899 26.257Z" fill="url(#paint27_linear_900_976)"/>
<path d="M88.2375 26.2538C75.158 26.4228 71.8115 13.6753 71.8115 13.6753C71.8115 13.6753 83.8354 9.20259 88.1379 18.9928L88.2375 26.2538Z" fill="url(#paint28_linear_900_976)"/>
<path d="M87.5457 224.838C149.591 224.542 164.549 164.124 164.549 164.124C164.549 164.124 107.203 144.028 87.4977 190.574L87.5457 224.838Z" fill="url(#paint29_linear_900_976)"/>
<path d="M87.6661 224.672C25.1873 224.829 9.83626 163.778 9.83626 163.778C9.83626 163.778 67.487 143.013 87.551 189.986L87.6661 224.672Z" fill="url(#paint30_linear_900_976)"/>
<path d="M88.2336 86.9853C58.5374 87.0603 51.241 58.0427 51.241 58.0427C51.241 58.0427 78.6425 48.1726 88.1789 70.4993L88.2336 86.9853Z" fill="url(#paint31_linear_900_976)"/>
<path d="M88.3415 14.5971C96.8224 14.5567 98.8671 6.2982 98.8671 6.2982C98.8671 6.2982 91.0284 3.55122 88.335 9.91359L88.3415 14.5971Z" fill="url(#paint32_linear_900_976)"/>
<path d="M88.4769 14.5761C79.9923 14.5976 77.9076 6.30684 77.9076 6.30684C77.9076 6.30684 85.7366 3.48684 88.4613 9.86585L88.4769 14.5761Z" fill="url(#paint33_linear_900_976)"/>
<path d="M88.0825 40.3746C72.1402 40.4148 68.2231 24.8368 68.2231 24.8368C68.2231 24.8368 82.9335 19.5381 88.0532 31.5241L88.0825 40.3746Z" fill="url(#paint34_linear_900_976)"/>
<defs>
<linearGradient id="paint0_linear_900_976" x1="112.421" y1="118.143" x2="122.62" y2="163.265" gradientUnits="userSpaceOnUse">
<stop offset="0.197115" stop-color="#DB7AB9"/>
<stop offset="1" stop-color="#C4476F"/>
</linearGradient>
<linearGradient id="paint1_linear_900_976" x1="95.9557" y1="24.3233" x2="99.2371" y2="38.3668" gradientUnits="userSpaceOnUse">
<stop offset="0.0480769" stop-color="#CC597E"/>
<stop offset="0.793269" stop-color="#DF6DB7"/>
</linearGradient>
<linearGradient id="paint2_linear_900_976" x1="102.95" y1="57.0849" x2="109.062" y2="83.2441" gradientUnits="userSpaceOnUse">
<stop offset="0.0480769" stop-color="#CC597E"/>
<stop offset="0.793269" stop-color="#DF6DB7"/>
</linearGradient>
<linearGradient id="paint3_linear_900_976" x1="146.543" y1="108.386" x2="84.4066" y2="81.7514" gradientUnits="userSpaceOnUse">
<stop offset="0.0913462" stop-color="#445C19"/>
<stop offset="0.653846" stop-color="#72A85A"/>
</linearGradient>
<linearGradient id="paint4_linear_900_976" x1="96.4362" y1="4.78192" x2="87.5595" y2="1.28187" gradientUnits="userSpaceOnUse">
<stop offset="0.0913462" stop-color="#445C19"/>
<stop offset="0.653846" stop-color="#72A85A"/>
</linearGradient>
<linearGradient id="paint5_linear_900_976" x1="19.7504" y1="152.054" x2="93.3033" y2="121.491" gradientUnits="userSpaceOnUse">
<stop offset="0.0913462" stop-color="#445C19"/>
<stop offset="0.653846" stop-color="#72A85A"/>
</linearGradient>
<linearGradient id="paint6_linear_900_976" x1="66.7516" y1="81.3368" x2="58.2602" y2="118.405" gradientUnits="userSpaceOnUse">
<stop offset="0.0480769" stop-color="#CC597E"/>
<stop offset="0.793269" stop-color="#DF6DB7"/>
</linearGradient>
<linearGradient id="paint7_linear_900_976" x1="120.611" y1="52.2905" x2="86.18" y2="37.5314" gradientUnits="userSpaceOnUse">
<stop offset="0.0913462" stop-color="#445C19"/>
<stop offset="0.653846" stop-color="#72A85A"/>
</linearGradient>
<linearGradient id="paint8_linear_900_976" x1="76.4248" y1="37.0859" x2="71.6989" y2="57.874" gradientUnits="userSpaceOnUse">
<stop offset="0.0480769" stop-color="#CC597E"/>
<stop offset="0.793269" stop-color="#DF6DB7"/>
</linearGradient>
<linearGradient id="paint9_linear_900_976" x1="85.2245" y1="1.13313" x2="84.1118" y2="6.44799" gradientUnits="userSpaceOnUse">
<stop offset="0.0480769" stop-color="#CC597E"/>
<stop offset="0.793269" stop-color="#DF6DB7"/>
</linearGradient>
<linearGradient id="paint10_linear_900_976" x1="106.19" y1="21.1155" x2="86.7938" y2="13.281" gradientUnits="userSpaceOnUse">
<stop offset="0.0913462" stop-color="#445C19"/>
<stop offset="0.653846" stop-color="#72A85A"/>
</linearGradient>
<linearGradient id="paint11_linear_900_976" x1="81.5105" y1="13.0987" x2="78.9923" y2="24.7335" gradientUnits="userSpaceOnUse">
<stop offset="0.0480769" stop-color="#CC597E"/>
<stop offset="0.793269" stop-color="#DF6DB7"/>
</linearGradient>
<linearGradient id="paint12_linear_900_976" x1="173.457" y1="202.245" x2="82.2198" y2="163.136" gradientUnits="userSpaceOnUse">
<stop offset="0.0913462" stop-color="#445C19"/>
<stop offset="0.653846" stop-color="#72A85A"/>
</linearGradient>
<linearGradient id="paint13_linear_900_976" x1="56.1894" y1="161.506" x2="43.5847" y2="216.951" gradientUnits="userSpaceOnUse">
<stop offset="0.0480769" stop-color="#CC597E"/>
<stop offset="0.793269" stop-color="#DF6DB7"/>
</linearGradient>
<linearGradient id="paint14_linear_900_976" x1="47.0642" y1="76.4153" x2="90.7487" y2="57.5238" gradientUnits="userSpaceOnUse">
<stop offset="0.0913462" stop-color="#445C19"/>
<stop offset="0.653846" stop-color="#72A85A"/>
</linearGradient>
<linearGradient id="paint15_linear_900_976" x1="92.5738" y1="6.03709" x2="94.3202" y2="13.5111" gradientUnits="userSpaceOnUse">
<stop offset="0.0480769" stop-color="#CC597E"/>
<stop offset="0.793269" stop-color="#DF6DB7"/>
</linearGradient>
<linearGradient id="paint16_linear_900_976" x1="76.7143" y1="11.5561" x2="89.1955" y2="6.15858" gradientUnits="userSpaceOnUse">
<stop offset="0.0913462" stop-color="#445C19"/>
<stop offset="0.653846" stop-color="#72A85A"/>
</linearGradient>
<linearGradient id="paint17_linear_900_976" x1="65.9809" y1="34.7001" x2="89.4327" y2="24.5583" gradientUnits="userSpaceOnUse">
<stop offset="0.0913462" stop-color="#445C19"/>
<stop offset="0.653846" stop-color="#72A85A"/>
</linearGradient>
<linearGradient id="paint18_linear_900_976" x1="95.9557" y1="24.3233" x2="99.2371" y2="38.3668" gradientUnits="userSpaceOnUse">
<stop offset="0.197115" stop-color="#DB7AB9"/>
<stop offset="1" stop-color="#C4476F"/>
</linearGradient>
<linearGradient id="paint19_linear_900_976" x1="102.95" y1="57.0849" x2="109.062" y2="83.2441" gradientUnits="userSpaceOnUse">
<stop offset="0.197115" stop-color="#DB7AB9"/>
<stop offset="1" stop-color="#C4476F"/>
</linearGradient>
<linearGradient id="paint20_linear_900_976" x1="146.543" y1="108.386" x2="84.4066" y2="81.7514" gradientUnits="userSpaceOnUse">
<stop offset="0.0913462" stop-color="#445C19"/>
<stop offset="0.653846" stop-color="#72A85A"/>
</linearGradient>
<linearGradient id="paint21_linear_900_976" x1="96.4362" y1="4.78192" x2="87.5595" y2="1.28187" gradientUnits="userSpaceOnUse">
<stop offset="0.0913462" stop-color="#445C19"/>
<stop offset="0.653846" stop-color="#72A85A"/>
</linearGradient>
<linearGradient id="paint22_linear_900_976" x1="19.7504" y1="152.054" x2="93.3033" y2="121.491" gradientUnits="userSpaceOnUse">
<stop offset="0.0913462" stop-color="#445C19"/>
<stop offset="0.653846" stop-color="#72A85A"/>
</linearGradient>
<linearGradient id="paint23_linear_900_976" x1="66.7516" y1="81.3368" x2="58.2602" y2="118.405" gradientUnits="userSpaceOnUse">
<stop offset="0.197115" stop-color="#DB7AB9"/>
<stop offset="1" stop-color="#C4476F"/>
</linearGradient>
<linearGradient id="paint24_linear_900_976" x1="120.611" y1="52.2905" x2="86.18" y2="37.5314" gradientUnits="userSpaceOnUse">
<stop offset="0.0913462" stop-color="#445C19"/>
<stop offset="0.653846" stop-color="#72A85A"/>
</linearGradient>
<linearGradient id="paint25_linear_900_976" x1="76.4248" y1="37.0859" x2="71.6989" y2="57.874" gradientUnits="userSpaceOnUse">
<stop offset="0.197115" stop-color="#DB7AB9"/>
<stop offset="1" stop-color="#C4476F"/>
</linearGradient>
<linearGradient id="paint26_linear_900_976" x1="85.2245" y1="1.13313" x2="84.1118" y2="6.44799" gradientUnits="userSpaceOnUse">
<stop offset="0.197115" stop-color="#DB7AB9"/>
<stop offset="1" stop-color="#C4476F"/>
</linearGradient>
<linearGradient id="paint27_linear_900_976" x1="106.19" y1="21.1155" x2="86.7938" y2="13.281" gradientUnits="userSpaceOnUse">
<stop offset="0.0913462" stop-color="#445C19"/>
<stop offset="0.653846" stop-color="#72A85A"/>
</linearGradient>
<linearGradient id="paint28_linear_900_976" x1="81.5105" y1="13.0987" x2="78.9923" y2="24.7335" gradientUnits="userSpaceOnUse">
<stop offset="0.197115" stop-color="#DB7AB9"/>
<stop offset="1" stop-color="#C4476F"/>
</linearGradient>
<linearGradient id="paint29_linear_900_976" x1="173.457" y1="202.245" x2="82.2198" y2="163.136" gradientUnits="userSpaceOnUse">
<stop offset="0.0913462" stop-color="#445C19"/>
<stop offset="0.653846" stop-color="#72A85A"/>
</linearGradient>
<linearGradient id="paint30_linear_900_976" x1="56.1894" y1="161.506" x2="43.5847" y2="216.951" gradientUnits="userSpaceOnUse">
<stop offset="0.197115" stop-color="#DB7AB9"/>
<stop offset="1" stop-color="#C4476F"/>
</linearGradient>
<linearGradient id="paint31_linear_900_976" x1="47.0642" y1="76.4153" x2="90.7487" y2="57.5238" gradientUnits="userSpaceOnUse">
<stop offset="0.0913462" stop-color="#445C19"/>
<stop offset="0.653846" stop-color="#72A85A"/>
</linearGradient>
<linearGradient id="paint32_linear_900_976" x1="92.5738" y1="6.03709" x2="94.3202" y2="13.5111" gradientUnits="userSpaceOnUse">
<stop offset="0.197115" stop-color="#DB7AB9"/>
<stop offset="1" stop-color="#C4476F"/>
</linearGradient>
<linearGradient id="paint33_linear_900_976" x1="76.7143" y1="11.5561" x2="89.1955" y2="6.15858" gradientUnits="userSpaceOnUse">
<stop offset="0.0913462" stop-color="#445C19"/>
<stop offset="0.653846" stop-color="#72A85A"/>
</linearGradient>
<linearGradient id="paint34_linear_900_976" x1="65.9809" y1="34.7001" x2="89.4327" y2="24.5583" gradientUnits="userSpaceOnUse">
<stop offset="0.0913462" stop-color="#445C19"/>
<stop offset="0.653846" stop-color="#72A85A"/>
</linearGradient>
</defs>
</svg>
