<svg width="228" height="185" viewBox="0 0 228 185" fill="none" xmlns="http://www.w3.org/2000/svg">
<path d="M157.411 90.5234H100.613" stroke="black"/>
<path d="M38.9474 45.0886C44.062 45.0886 49.1265 46.3059 53.8518 48.6709C58.5771 51.036 62.8706 54.5025 66.4872 58.8725C70.1037 63.2425 72.9726 68.4305 74.9299 74.1402C76.8871 79.85 77.8945 85.9696 77.8945 92.1498C77.8945 98.3299 76.8871 104.45 74.9299 110.159C72.9726 115.869 70.1037 121.057 66.4872 125.427C62.8706 129.797 58.5771 133.264 53.8518 135.629C49.1265 137.994 44.062 139.211 38.9474 139.211L38.9474 92.1498L38.9474 45.0886Z" fill="url(#paint0_linear_900_1016)"/>
<path d="M27.7394 79.9025C25.1578 79.8203 22.6648 81.0297 20.8088 83.2646C18.9528 85.4994 17.8859 88.5768 17.8426 91.8197C17.7994 95.0625 18.7835 98.2052 20.5784 100.556C22.3733 102.908 24.8319 104.275 27.4135 104.357L27.5765 92.1298L27.7394 79.9025Z" fill="url(#paint1_linear_900_1016)"/>
<path d="M27.3199 79.6756C14.1721 78.3126 18.2524 54.6046 18.5782 54.5936C18.9041 54.5826 41.8437 54.8977 39.3639 91.9275L27.3144 91.77L27.3199 79.6756Z" fill="url(#paint2_linear_900_1016)"/>
<path d="M26.9348 103.292C13.5331 104.186 17.4881 128.483 17.8198 128.506C18.1516 128.529 41.5167 129.072 39.3044 91.2685L27.0315 90.9756L26.9348 103.292Z" fill="url(#paint3_linear_900_1016)"/>
<path d="M61.2454 96.5133C65.4845 16.4301 145.682 23.5999 145.682 23.5999C145.682 23.5999 144.816 88.6673 92.337 91.8031L61.2454 96.5133Z" fill="url(#paint4_linear_900_1016)"/>
<path d="M61.2424 94.6249C67.3666 158.692 145.558 162.02 145.558 162.02C145.558 162.02 153.59 98.0576 101.285 89.9139L61.2424 94.6249Z" fill="url(#paint5_linear_900_1016)"/>
<path d="M192.702 49.1463C188.067 49.1463 183.477 50.2062 179.195 52.2654C174.913 54.3246 171.022 57.3429 167.744 61.1478C164.467 64.9528 161.867 69.4699 160.093 74.4413C158.319 79.4127 157.406 84.741 157.406 90.122C157.406 95.503 158.319 100.831 160.093 105.803C161.867 110.774 164.467 115.291 167.744 119.096C171.022 122.901 174.913 125.919 179.195 127.979C183.477 130.038 188.067 131.098 192.702 131.098L192.702 90.122L192.702 49.1463Z" fill="url(#paint6_linear_900_1016)"/>
<defs>
<linearGradient id="paint0_linear_900_1016" x1="49.0674" y1="139.211" x2="20.3511" y2="47.7499" gradientUnits="userSpaceOnUse">
<stop stop-color="#62AC9F"/>
<stop offset="0.451923" stop-color="#84CEC1"/>
</linearGradient>
<linearGradient id="paint1_linear_900_1016" x1="17.8426" y1="91.8197" x2="37.3151" y2="92.0792" gradientUnits="userSpaceOnUse">
<stop offset="0.197115" stop-color="#DB7AB9"/>
<stop offset="1" stop-color="#C4476F"/>
</linearGradient>
<linearGradient id="paint2_linear_900_1016" x1="17.7232" y1="73.1132" x2="39.5574" y2="73.1231" gradientUnits="userSpaceOnUse">
<stop offset="0.197115" stop-color="#DB7AB9"/>
<stop offset="1" stop-color="#C4476F"/>
</linearGradient>
<linearGradient id="paint3_linear_900_1016" x1="17.1057" y1="109.614" x2="39.3474" y2="109.789" gradientUnits="userSpaceOnUse">
<stop offset="0.197115" stop-color="#DB7AB9"/>
<stop offset="1" stop-color="#C4476F"/>
</linearGradient>
<linearGradient id="paint4_linear_900_1016" x1="111.398" y1="1.62137" x2="118.019" y2="104.642" gradientUnits="userSpaceOnUse">
<stop offset="0.0913462" stop-color="#445C19"/>
<stop offset="0.653846" stop-color="#72A85A"/>
</linearGradient>
<linearGradient id="paint5_linear_900_1016" x1="109.108" y1="180.79" x2="125.563" y2="78.1407" gradientUnits="userSpaceOnUse">
<stop offset="0.0913462" stop-color="#445C19"/>
<stop offset="0.653846" stop-color="#72A85A"/>
</linearGradient>
<linearGradient id="paint6_linear_900_1016" x1="157.406" y1="90.122" x2="227.998" y2="90.122" gradientUnits="userSpaceOnUse">
<stop offset="0.197115" stop-color="#DB7AB9"/>
<stop offset="1" stop-color="#C4476F"/>
</linearGradient>
</defs>
</svg>
