<svg width="98" height="115" viewBox="0 0 98 115" fill="none" xmlns="http://www.w3.org/2000/svg">
<path d="M16.277 93.4005H17.7642V103.25H23.6979V93.4005H25.1927V103.25H26.3385V106.945H24.9423V104.555H16.277V93.4005ZM27.219 96.4281H30.6791C31.6706 96.4281 32.4116 96.6127 32.9023 96.982C33.3981 97.3513 33.6459 97.8875 33.6459 98.5906C33.6459 98.9649 33.5549 99.2811 33.3728 99.5391C33.1907 99.7971 32.9504 100.025 32.6519 100.222C33.0819 100.384 33.4234 100.617 33.6763 100.92C33.9292 101.224 34.0557 101.616 34.0557 102.096C34.0557 102.476 33.9925 102.817 33.866 103.121C33.7395 103.424 33.5473 103.682 33.2893 103.895C33.0313 104.107 32.7025 104.271 32.3029 104.388C31.9083 104.499 31.4404 104.555 30.8991 104.555H27.219V96.4281ZM28.6152 103.439H30.7398C31.1091 103.439 31.4151 103.411 31.6579 103.356C31.9058 103.295 32.1031 103.209 32.2498 103.098C32.3965 102.987 32.5002 102.852 32.5609 102.696C32.6216 102.539 32.6519 102.362 32.6519 102.165C32.6519 101.967 32.6216 101.79 32.5609 101.633C32.5002 101.471 32.3965 101.337 32.2498 101.231C32.1031 101.12 31.9058 101.036 31.6579 100.981C31.4151 100.92 31.1091 100.89 30.7398 100.89H28.6152V103.439ZM28.6152 99.8654H30.7246C31.1951 99.8654 31.5669 99.7718 31.84 99.5846C32.1132 99.3975 32.2498 99.1066 32.2498 98.712C32.2498 98.4894 32.2118 98.3048 32.136 98.1581C32.0601 98.0063 31.9589 97.8849 31.8324 97.7939C31.706 97.7028 31.5618 97.6396 31.3999 97.6042C31.2431 97.5637 31.0812 97.5435 30.9143 97.5435H28.6152V99.8654ZM42.342 101.96C42.2863 102.314 42.1649 102.66 41.9778 102.999C41.7906 103.338 41.5452 103.642 41.2417 103.91C40.9382 104.178 40.5791 104.393 40.1642 104.555C39.7545 104.722 39.2992 104.805 38.7984 104.805C38.2521 104.805 37.7462 104.717 37.2808 104.54C36.8205 104.357 36.4209 104.087 36.082 103.728C35.7481 103.363 35.485 102.908 35.2928 102.362C35.1006 101.815 35.0045 101.173 35.0045 100.434C35.0045 99.9387 35.0576 99.491 35.1638 99.0914C35.2751 98.6867 35.4218 98.3276 35.6039 98.0139C35.7911 97.6952 36.0061 97.4221 36.2489 97.1944C36.4917 96.9617 36.7472 96.772 37.0153 96.6253C37.2884 96.4736 37.5667 96.3623 37.8499 96.2915C38.1332 96.2156 38.4064 96.1777 38.6694 96.1777C39.2259 96.1777 39.7343 96.2611 40.1946 96.4281C40.6549 96.595 41.0495 96.8504 41.3783 97.1944C41.7122 97.5334 41.9702 97.9608 42.1523 98.4768C42.3394 98.9877 42.433 99.5897 42.433 100.283V100.981H36.4917C36.4968 101.375 36.5524 101.735 36.6586 102.058C36.7649 102.377 36.9166 102.65 37.1139 102.878C37.3112 103.105 37.549 103.282 37.8272 103.409C38.1105 103.53 38.4291 103.591 38.7833 103.591C39.1424 103.591 39.4459 103.54 39.6938 103.439C39.9417 103.338 40.1491 103.209 40.316 103.052C40.4829 102.895 40.617 102.721 40.7182 102.529C40.8244 102.336 40.9129 102.147 40.9837 101.96H42.342ZM41.0293 99.8654C41.0191 99.4708 40.9584 99.1192 40.8472 98.8107C40.7409 98.5021 40.5892 98.2441 40.3919 98.0367C40.1997 97.8242 39.967 97.6649 39.6938 97.5587C39.4206 97.4474 39.1171 97.3917 38.7833 97.3917C38.4646 97.3917 38.1712 97.455 37.9031 97.5814C37.6349 97.7028 37.3997 97.8748 37.1974 98.0974C36.995 98.3149 36.8332 98.5754 36.7118 98.8789C36.5903 99.1774 36.517 99.5062 36.4917 99.8654H41.0293ZM45.9238 97.6421H43.1238V96.4281H50.1199V97.6421H47.3199V104.555H45.9238V97.6421ZM56.8962 100.48C56.8962 100.03 56.8456 99.6175 56.7444 99.2432C56.6432 98.8638 56.4915 98.5375 56.2891 98.2643C56.0868 97.9912 55.8364 97.7787 55.5379 97.6269C55.2445 97.4701 54.9031 97.3917 54.5136 97.3917C54.124 97.3917 53.7826 97.4701 53.4892 97.6269C53.1958 97.7787 52.9479 97.9912 52.7456 98.2643C52.5432 98.5375 52.3915 98.8638 52.2903 99.2432C52.1891 99.6175 52.1385 100.03 52.1385 100.48C52.1385 100.935 52.1891 101.355 52.2903 101.74C52.3915 102.119 52.5432 102.445 52.7456 102.718C52.9479 102.992 53.1958 103.207 53.4892 103.363C53.7826 103.515 54.124 103.591 54.5136 103.591C54.9031 103.591 55.2445 103.515 55.5379 103.363C55.8364 103.207 56.0868 102.992 56.2891 102.718C56.4915 102.445 56.6432 102.119 56.7444 101.74C56.8456 101.355 56.8962 100.935 56.8962 100.48ZM58.2923 100.48C58.2923 101.148 58.2063 101.75 58.0343 102.286C57.8623 102.817 57.6145 103.27 57.2907 103.644C56.967 104.018 56.5699 104.307 56.0994 104.509C55.634 104.706 55.1054 104.805 54.5136 104.805C53.9217 104.805 53.3931 104.706 52.9277 104.509C52.4623 104.307 52.0677 104.018 51.744 103.644C51.4202 103.27 51.1724 102.817 51.0004 102.286C50.8284 101.75 50.7424 101.148 50.7424 100.48C50.7424 99.8224 50.8284 99.228 51.0004 98.6968C51.1724 98.1657 51.4202 97.7129 51.744 97.3386C52.0677 96.9643 52.4623 96.6785 52.9277 96.4812C53.3931 96.2788 53.9217 96.1777 54.5136 96.1777C55.1054 96.1777 55.634 96.2788 56.0994 96.4812C56.5699 96.6785 56.967 96.9643 57.2907 97.3386C57.6145 97.7129 57.8623 98.1657 58.0343 98.6968C58.2063 99.228 58.2923 99.8224 58.2923 100.48ZM65.0307 97.6421H61.9196L61.8589 99.5922C61.8286 100.579 61.7527 101.403 61.6313 102.066C61.5099 102.723 61.343 103.252 61.1305 103.652C60.9231 104.051 60.6702 104.335 60.3717 104.502C60.0733 104.669 59.7318 104.752 59.3473 104.752C59.2057 104.752 59.0818 104.729 58.9755 104.684C58.8744 104.643 58.796 104.6 58.7403 104.555V103.325C58.9376 103.401 59.1121 103.439 59.2639 103.439C59.3701 103.439 59.4713 103.422 59.5674 103.386C59.6686 103.351 59.7621 103.282 59.8481 103.181C59.9392 103.08 60.0227 102.938 60.0985 102.756C60.1744 102.569 60.2402 102.326 60.2958 102.028C60.3565 101.729 60.4046 101.368 60.44 100.943C60.4805 100.518 60.5083 100.012 60.5235 99.4253L60.5918 96.4281H66.4268V104.555H65.0307V97.6421ZM68.1724 96.4281H69.5685V102.658H69.5989L73.5901 96.4281H75.1912V104.555H73.7874V98.325H73.7571L69.7734 104.555H68.1724V96.4281ZM76.9367 96.4281H78.3329V100.359L82.4379 96.4281H84.2666L80.4499 100.017L84.3273 104.555H82.529L79.3572 100.867L78.3329 101.724V104.555H76.9367V96.4281Z" fill="white"/>
<path d="M36.073 58.4529C46.9503 70.8196 48.143 79.563 48.971 87.0113C41.8233 87.3914 31.5334 84.3797 20.6561 72.013C9.77875 59.6463 9.23527 48.1837 8.84865 42.6833C13.3169 43.4256 25.1956 46.0861 36.073 58.4529Z" fill="url(#paint0_linear_900_1204)"/>
<path d="M74.9121 72.1111C63.5053 84.2785 56.0639 85.5438 48.6765 87.1405C48.5787 80.9615 49.41 70.3406 60.8168 58.1731C72.2236 46.0057 82.7748 44.176 88.2506 43.2221C87.9108 47.7734 86.3188 59.9437 74.9121 72.1111Z" fill="url(#paint1_linear_900_1204)"/>
<path d="M77.6224 41.6825C66.2156 53.8499 56.6704 53.6939 49.2831 55.2906C49.1853 49.1116 45.0611 33.7771 56.4678 21.6097C67.8746 9.44227 83.3539 12.3004 88.8297 11.3465C88.4899 15.8978 89.0292 29.5151 77.6224 41.6825Z" fill="url(#paint2_linear_900_1204)"/>
<path d="M20.9997 42.386C32.7544 54.6068 41.7493 53.7636 49.2801 55.2906C49.299 49.0077 53.9985 33.9251 42.2438 21.7043C30.4892 9.48363 14.7901 12.5909 9.21106 11.6926C9.61579 16.315 9.24505 30.1653 20.9997 42.386Z" fill="url(#paint3_linear_900_1204)"/>
<path d="M35.3438 12.3535C43.9979 0.213663 57.0994 1.1752 64.0708 12.3535" stroke="url(#paint4_linear_900_1204)" stroke-width="2.76056"/>
<defs>
<linearGradient id="paint0_linear_900_1204" x1="52.4931" y1="77.1214" x2="28.6891" y2="92.1294" gradientUnits="userSpaceOnUse">
<stop offset="0.225962" stop-color="#ABC67A"/>
<stop offset="0.625" stop-color="#699C53"/>
</linearGradient>
<linearGradient id="paint1_linear_900_1204" x1="57.693" y1="90.4788" x2="40.4182" y2="68.254" gradientUnits="userSpaceOnUse">
<stop offset="0.225962" stop-color="#ABC67A"/>
<stop offset="0.625" stop-color="#699C53"/>
</linearGradient>
<linearGradient id="paint2_linear_900_1204" x1="87.3639" y1="9.97234" x2="46.939" y2="53.093" gradientUnits="userSpaceOnUse">
<stop offset="0.100962" stop-color="#DF6DB7"/>
<stop offset="1" stop-color="#B85172"/>
</linearGradient>
<linearGradient id="paint3_linear_900_1204" x1="10.6832" y1="10.2765" x2="51.7217" y2="52.942" gradientUnits="userSpaceOnUse">
<stop offset="0.100962" stop-color="#DF6DB7"/>
<stop offset="1" stop-color="#B85172"/>
</linearGradient>
<linearGradient id="paint4_linear_900_1204" x1="47.8387" y1="12.3535" x2="51.5758" y2="3.60547" gradientUnits="userSpaceOnUse">
<stop stop-color="#E5D8AB"/>
<stop offset="1" stop-color="#CEB24D"/>
</linearGradient>
</defs>
</svg>
