<svg width="681" height="628" viewBox="0 0 681 628" fill="none" xmlns="http://www.w3.org/2000/svg">
<g filter="url(#filter0_f_713_113)">
<path d="M346.724 523.033C584.472 523.033 642.115 274.527 642.115 274.527C642.115 274.527 422.479 190.646 346.724 381.936L346.724 523.033Z" fill="url(#paint0_linear_713_113)"/>
</g>
<g filter="url(#filter1_f_713_113)">
<path d="M350.138 523.404C102.216 537.805 36.8749 295.612 36.8749 295.612C36.8749 295.612 264.144 199.38 347.168 383.909L350.138 523.404Z" fill="url(#paint1_linear_713_113)"/>
</g>
<path d="M455 127.5C455 96.0718 443.147 65.9309 422.05 43.7078C400.952 21.4848 372.337 9 342.5 9C312.663 9 284.048 21.4848 262.95 43.7078C241.853 65.9309 230 96.0718 230 127.5L342.5 127.5H455Z" fill="url(#paint2_linear_713_113)"/>
<path d="M345.98 263.004V628.004" stroke="black" stroke-width="3"/>
<path d="M449.017 122.213C457.416 -39.9463 669.471 6.41736 669.661 10.4288C669.851 14.4402 673.549 297.029 343.442 272.566L341.428 124.131L449.017 122.213Z" fill="url(#paint3_linear_713_113)"/>
<path d="M236.359 125.982C223.586 -35.5435 13.2256 18.271 13.1445 22.2809C13.0634 26.2908 17.0262 308.426 345.788 272.266L343.777 124.067L236.359 125.982Z" fill="url(#paint4_linear_713_113)"/>
<defs>
<filter id="filter0_f_713_113" x="345.723" y="255.215" width="297.391" height="268.818" filterUnits="userSpaceOnUse" color-interpolation-filters="sRGB">
<feFlood flood-opacity="0" result="BackgroundImageFix"/>
<feBlend mode="normal" in="SourceGraphic" in2="BackgroundImageFix" result="shape"/>
<feGaussianBlur stdDeviation="0.5" result="effect1_foregroundBlur_713_113"/>
</filter>
<filter id="filter1_f_713_113" x="35.875" y="269.531" width="315.262" height="255.49" filterUnits="userSpaceOnUse" color-interpolation-filters="sRGB">
<feFlood flood-opacity="0" result="BackgroundImageFix"/>
<feBlend mode="normal" in="SourceGraphic" in2="BackgroundImageFix" result="shape"/>
<feGaussianBlur stdDeviation="0.5" result="effect1_foregroundBlur_713_113"/>
</filter>
<linearGradient id="paint0_linear_713_113" x1="540.376" y1="247.395" x2="445.827" y2="511.732" gradientUnits="userSpaceOnUse">
<stop offset="0.0913462" stop-color="#445C19"/>
<stop offset="0.653846" stop-color="#72A85A"/>
</linearGradient>
<linearGradient id="paint1_linear_713_113" x1="142.396" y1="262.626" x2="244.923" y2="518.887" gradientUnits="userSpaceOnUse">
<stop offset="0.0913462" stop-color="#445C19"/>
<stop offset="0.653846" stop-color="#72A85A"/>
</linearGradient>
<linearGradient id="paint2_linear_713_113" x1="342.5" y1="9" x2="342.5" y2="246" gradientUnits="userSpaceOnUse">
<stop offset="0.100962" stop-color="#DF6DB7"/>
<stop offset="1" stop-color="#B85172"/>
</linearGradient>
<linearGradient id="paint3_linear_713_113" x1="504.674" y1="2.93817" x2="509.469" y2="271.885" gradientUnits="userSpaceOnUse">
<stop offset="0.100962" stop-color="#DF6DB7"/>
<stop offset="1" stop-color="#B85172"/>
</linearGradient>
<linearGradient id="paint4_linear_713_113" x1="177.587" y1="8.93412" x2="182.374" y2="277.455" gradientUnits="userSpaceOnUse">
<stop offset="0.100962" stop-color="#DF6DB7"/>
<stop offset="1" stop-color="#B85172"/>
</linearGradient>
</defs>
</svg>
